<?xml version="1.0" encoding="UTF-8"?>
<svg id="Camada_1" xmlns="http://www.w3.org/2000/svg" version="1.1" viewBox="0 0 200 200">
  <!-- Generator: Adobe Illustrator 30.0.0, SVG Export Plug-In . SVG Version: 2.1.1 Build 123)  -->
  <defs>
    <style>
      .st0 {
        stroke: #1d1d1b;
        stroke-miterlimit: 10;
        stroke-width: 2px;
      }
    </style>
  </defs>
  <path class="st0" d="M90.9,11.32c24.65-1.32,44.39,2.01,63.82,17.62,30.27,24.33,40.91,72.17,25.54,107.64-17.44,40.25-53.26,59.68-96.91,49.81-34.94-7.9-61.38-31.84-68.89-67.37C4.37,71.28,40.19,14.04,90.9,11.32ZM103.58,16.6c-45.77,2.93-78.05,51.43-72.79,95.08,6.61,54.86,65.23,92.88,114.97,60.38,28.04-18.32,40.71-53.81,35.43-86.41-6.12-37.82-37.1-71.65-77.61-69.05ZM72.21,20.49c-6.12,1.99-11.95,5.14-16.9,9.24l4.74-.67,12.16-8.57ZM55.31,33.17l-6.07.93c-1.37,1.27-2.76,2.52-4.16,3.75-.18.16-.51-.01-.34.6,2.01-.36,4.01-1.16,6.07-.91l4.49-4.36ZM47.65,41.09l-7.12,1.46-3.97,5.13c2.3-.42,4.51-1.12,6.86-1.19l4.23-5.41ZM40.78,50.06l-7.01,1.57c-.64.49-4.34,6.09-4.08,6.35l7.39-1.45,3.69-6.47ZM35.24,60.1l-7.8,1.84c-.64.52-3.61,7.61-3.29,7.93l7.61-1.36,3.47-8.41ZM30.48,71.98l-7.67,1.44-2.36,8.59,7.61-1.36,2.42-8.67ZM27.32,84.13l-7.53,1.58c-.47.45-1.75,7.89-1.45,8.19l7.63-1.09,1.35-8.69ZM25.47,105.52l.14-9.26-7.68,1.32c-.19,3-.71,6-.11,9l7.66-1.06ZM26.79,117.4l-1.31-8.6-7.4.94c-.37.36,1.02,7.63,1.34,8.7l7.37-1.04ZM27.58,120.57c-.97.33-7.28.69-7.36,1.45l2.6,7.67,6.87-.4-2.11-8.71ZM33.92,140.11l-3.17-7.81-6.6.68c-.49.44,2.87,6.62,3.21,7.61l6.56-.49ZM35.73,143.32l-6.29.61c.89,1.11,3.55,6.08,4.49,6.6,1.06.59,4.16-.52,5.54-.13l-3.74-7.08ZM45.27,158.33l-3.7-4.9-4.75.42c-.22.22,3.88,4.46,4.23,4.61,1.01.46,3.11.03,4.22-.13ZM52.14,165.72c-.91-.79-3.08-3.69-3.97-4.09s-2.5-.11-3.43.13c-.18.25,4.12,3.86,4.56,4.03.61.23,2.06-.28,2.83-.07ZM59.8,172.32c-1.76-1.42-3.58-4.05-6.07-3.69,1.61,1.63,3.96,2.83,6.07,3.69Z"/>
  <g>
    <path class="st0" d="M107.54,30.86l4.67-.08c25.36.68,45.71,19.91,54.66,42.52,13.02,32.88-.38,79.51-34.72,93.34-28.77,11.58-56.37,3.69-76.18-19.4-16.24-18.93-18.67-51-9.83-73.74,10.34-26.62,33.36-40.78,61.41-42.64ZM106.22,34.56c-10.17.58-22.7,4.61-31.55,9.65-33.28,18.95-39.93,74.44-14.62,102.11,18.93,20.69,43.56,27.72,70.24,17.15,33.05-13.09,45.82-58.53,32.79-89.82-9.81-23.57-30.35-40.6-56.87-39.09Z"/>
    <path class="st0" d="M110.5,98.52c.03.19.27.55.47.66.98.57,4.34,1.12,5.74,1.58,7.71,2.56,14.51,6.79,15.19,15.71.81,10.69-6.07,18.65-16.16,21.09-.97.23-4.41.56-4.85.96-.34.31-.36,1-.4,1.45-.26,2.94.51,6.55.25,9.23-.31,3.21-3.61,3.93-4.93,1.03l-.18-11.7c-2.34-.77-4.8-1.05-7.15-1.83-4.02-1.34-9.86-4.49-12.53-7.81-1.06-1.32-2.24-3.06-.55-4.5,2.59-2.2,4.89,2.29,6.76,3.84,2.93,2.44,7.63,4.54,11.42,4.95.73.08,1.65.33,2.17-.32v-29.84c-2.93-1.45-6.22-2.2-9.16-3.78-15.24-8.22-10.81-27.73,4.53-32.8,1.49-.49,3.18-.56,4.5-1.31.51-.86-.1-8.31.15-10.15.43-3.16,4.12-3.24,4.67-.76.44,1.95-.44,9.89.29,10.8,1.82.64,3.85.78,5.77,1.36,3.72,1.11,9.76,4.77,11.47,8.34,1.16,2.42-.11,4.96-3.04,4.09-.62-.18-3.33-3.95-4.41-4.83-1.97-1.62-4.88-2.93-7.38-3.44-.72-.15-2.2-.53-2.65.01v27.99ZM105.74,97.2v-26.41c0-1.08-4.44.55-5.01.8-11.64,4.98-12,19.24,0,24.54.81.36,4.7,2.07,5.01,1.06ZM110.5,104.2v28.65c1.37.89,3.94.15,5.49-.32,7.53-2.29,12.75-9.52,10.75-17.5-1.74-6.97-9.95-9.74-16.24-10.82Z"/>
  </g>
</svg>