<?xml version="1.0" encoding="UTF-8"?>
<svg id="Camada_1" xmlns="http://www.w3.org/2000/svg" version="1.1" viewBox="0 0 500 500">
  <!-- Generator: Adobe Illustrator 30.0.0, SVG Export Plug-In . SVG Version: 2.1.1 Build 123)  -->
  <defs>
    <style>
      .st0 {
        fill: #fff;
      }
    </style>
  </defs>
  <polygon class="st0" points="466.34 33.31 466.69 33.31 466.69 466.69 33.31 466.69 33.31 466.34 466.35 466.35 466.34 33.31"/>
  <path d="M272.23,9.57c21.66-1.6,41.48.19,60.48,11.28,20.6,12.03,32.04,32.94,47.72,50.03,43.68,47.64,119.15,77.79,104.66,156.44-8.81,47.81-48.27,54.74-77.81,84.46-17.85,17.96-31.89,43.85-38.2,68.35-11.16,43.27-3.85,91.04-57.55,106.67-66.63,19.4-102.65-34.09-151.59-65.41C95.33,380.06-7.78,360.2,16.8,259.53c11.45-46.92,52.52-124.56,84.06-161.3C139.91,52.76,212.11,14.02,272.23,9.57ZM255.29,37.21c-30.99,4.23-39.53,32.95-37.59,60.53,1.05,14.95,6.82,38.24,25.06,39.54,17.15,1.22,77.43-38.06,84.94-53.66,6.08-12.63-2.27-21.07-11.93-28.22-15.29-11.31-41.46-20.78-60.48-18.18ZM366.05,97.54c-28.88,3.17-71.57,44.34-78.48,72.06-8.59,34.47,35.06,27.67,55.27,23.99,38.81-7.06,105.52-23.65,65.29-76.11-10.13-13.22-24.98-21.82-42.08-19.94ZM162.73,105.36c-12.97,1.23-30.56,10.86-40.37,19.26-10.14,8.68-29.51,30.66-8,38.35,16.57,5.92,57.55-5.86,70.13-18.25,17.98-17.7.89-41.5-21.76-39.35ZM227.25,185.52c-23.15,2.66-40.12,29.41-48.83,48.92-7.22,16.19-17.44,43.49,4.08,52.96,21.65,9.53,83.44-7.9,103.54-20.61,18.09-11.44,20.14-24.72,8.3-42.35s-44.18-41.55-67.09-38.91ZM130.49,188.46c-49.08,1.78-80.47,34.01-87.51,81.6-12.74,86.07,84.8,104.68,144.38,128.8,17.33,7.02,49,29.42,60.14,3.38,4.48-10.47,2.95-24.26-1.74-34.41-16.19-35.01-74.1-32.27-105.27-45.27-29.43-12.27-21.65-34.74-9.96-57.83,6.39-12.61,29.52-44.22,30.48-55.56,1.45-17.02-17.02-21.21-30.52-20.72ZM426.67,204.11c-19.15.75-79.98,10.34-92.7,23.62-14.66,15.31,11.08,24.56,22.75,28.16,30.43,9.38,83.36,19.02,98.97-17.87,10.44-24.66-6.27-34.8-29.03-33.91ZM363.97,288.23c-17.02-17.14-57.82-5.69-71.97,11.89-18.23,22.65-20.07,71.9-15.4,99.42,2,11.76,8.65,33.15,24.52,25.05,14.19-7.24,37.14-53.64,45.13-69.24,6.36-12.43,23.85-43.55,22.98-56.2-.25-3.67-2.72-8.35-5.27-10.92Z"/>
</svg>