<?xml version="1.0" encoding="UTF-8"?>
<svg id="Camada_1" xmlns="http://www.w3.org/2000/svg" version="1.1" viewBox="0 0 200 200">
  <!-- Generator: Adobe Illustrator 30.0.0, SVG Export Plug-In . SVG Version: 2.1.1 Build 123)  -->
  <defs>
    <style>
      .st0 {
        stroke: #000;
        stroke-miterlimit: 10;
        stroke-width: 5px;
      }
    </style>
  </defs>
  <path class="st0" d="M166.31,5.16c-.52.14-1.33,1.14-1.7,1.61-.62.8-4.76,7.49-4.97,8.15-.79,2.49,1.4,3.9,3.12,2.29.39-.37,5.34-8.61,5.53-9.22.52-1.62-.18-3.32-1.98-2.83ZM179.43,21.8c1.66-1.73,0-3.48-2.45-3.08-.98.16-9.55,3.87-10.3,4.46-1.58,1.24-.27,3.62,1.43,3.45.61-.06,10.89-4.38,11.32-4.83Z"/>
  <path class="st0" d="M179.43,21.8c-.42.45-10.71,4.77-11.32,4.83-1.7.16-3.01-2.22-1.43-3.45.75-.58,9.32-4.3,10.3-4.46,2.45-.4,4.11,1.35,2.45,3.08Z"/>
  <path class="st0" d="M166.31,5.16c1.81-.5,2.5,1.2,1.98,2.83-.2.61-5.14,8.85-5.53,9.22-1.72,1.61-3.91.2-3.12-2.29.21-.66,4.34-7.35,4.97-8.15.37-.47,1.18-1.46,1.7-1.61Z"/>
  <path class="st0" d="M139.39,32.15l.83,10.43c-.06,18.46-7.68,31.15-20.91,43.04-5.45,4.9-19.82,13.38-15.18,22.13,2.9,5.46,16.75,12.65,22.14,17.6,12.86,11.83,15.95,31.08,13.51,47.74,9.64-.17,11.94,5.46,11.09,14.15-.32,3.31-2.07,5.06-5.24,5.82-5.72,1.37-14.75,1.08-20.81,1.32-25.25.97-51.01.46-76.17,0-7.4-.14-16.08-.19-23.26-2.14-4.92-1.33-5.47-3.89-5.23-8.69.38-7.43,3.94-8.12,10.64-8.82.39-.38-.8-7.94-.81-9.21-.09-7.46,2.17-20.35,5.81-26.97,5.97-10.86,17.1-15.95,25.93-23.64,8.32-7.25,7.9-12.37-.41-19.23-7.36-6.08-15.07-9.75-21.49-17.44-10.22-12.23-10.97-29.68-9.03-44.84-9.57-.13-11.81-5.28-10.61-14.11.73-5.38,8.4-6.66,12.88-7.2,13.76-1.64,29.1-1.01,43.03-1.22,18.83-.29,37.68-.53,56.54.38,3.15.15,8.08.26,11,.88,6.21,1.3,6.93,5.49,6.38,11.22-.64,6.71-4.32,8.47-10.64,8.82ZM145.43,17.09c-2.1-2.31-17.34-1.55-21.01-1.72-26.97-1.25-54.1-1.41-81.12-.03-4.79.24-12.73.41-16.98,2.28-2.68,1.18-2.61,2.94-2.48,5.74.17,3.58.78,5.17,4.42,5.82,3.44.61,6.13.09,9.3.09,15.15,0,30.44.97,45.5.87,7.86-.05,16.25-1.77,24.16-2.1,10.56-.44,21.99.8,32.4.03,1.24-.09,4.88-.58,5.54-1.53,1.19-1.71,1.73-7.85.28-9.45ZM34.91,174.31h9.22c5.5-9.65,16.87-12.86,24.98-19.68,4.28-3.59,9.76-11.39,15.56-11.89,6.77-.58,11.11,5.33,16.07,8.96,5.52,4.03,11.78,7,17.31,10.96,3.87,2.78,7.93,6.09,9.53,10.75l8.11-.36c2.34-14.73.13-32.83-10.84-43.81-13.15-13.17-40.04-18.13-16.19-39.96,5.12-4.68,10.68-8.38,15.38-13.71,10.67-12.12,13.76-27.19,11.26-43.02-9.45-.2-19.02-.87-28.49-.43-7.87.36-15.83,2.02-23.73,2.09-4.39.04-9.54-.81-13.93-.86-11.39-.14-22.8.1-34.18.06-2.57,17.92-1.11,35.12,13.06,47.69,9.5,8.43,33.75,18.17,19.27,34.01-8.03,8.79-20.93,13.38-27.53,24.5-5.63,9.49-6.37,23.97-4.85,34.69ZM123,173.49c-.66-2.69-3.27-4.69-5.36-6.32-5.32-4.15-11.79-7.11-17.3-10.97-3.4-2.38-10.7-9.68-14.42-9.68-4.6,0-9.74,7.28-13.12,10.15-5.91,5.03-13.42,8.19-19.41,12.95-1.43,1.14-3.11,2.27-3.73,4.06l73.34-.2ZM136.85,176.89c-29.27.25-58.56,1.03-87.8,1.52-5.83.1-12.11-.47-18.02,0-7.16.58-7.63,2.2-6.4,9.25,6.51,2.49,13.83,2.36,20.75,2.61,28.4,1.01,58.86,1.47,87.26-.39,2.8-.18,11.28.14,13.3-1.04,1.9-1.12,1.28-8.4.2-10.01s-7.21-1.97-9.28-1.95Z"/>
  <path class="st0" d="M80.31,68.32c7.33-.51,18.7.6,25.98,2.05,16.66,3.32-2.43,15.99-7.87,20.97-2.95,2.7-8.82,10.23-12.55,10.43-3.92.21-9.48-6.76-12.65-9.39-4.53-3.75-10.28-6.96-14.54-10.86-10.25-9.4,2.37-10.29,9.75-11.56,3.71-.64,8.16-1.38,11.88-1.64ZM80.31,72.42c-5.37.4-14.03,1.61-19.19,2.94-.63.16-2.25.28-2.03,1.24l26.05,21.1c2.82.29,6.57-5.49,8.55-7.38,2.34-2.22,15.03-12.48,15.34-14.58.15-1.02-1.63-1.09-2.35-1.26-6.5-1.57-19.72-2.55-26.38-2.05Z"/>
  <path class="st0" d="M82.92,107.19c2.03-1.29,3.8-1.1,3.86,1.58-1.92,3.4-4.5,2.18-3.86-1.58Z"/>
  <circle class="st0" cx="85.46" cy="135.3" r="1.96"/>
  <path class="st0" d="M82.72,119.04c1.29-.33,2.72,1.55,1.79,3.06-2,3.25-4.96-2.24-1.79-3.06Z"/>
  <path class="st0" d="M88.44,125.65c2.47-.21,2.5,4.08-.08,3.99-1.85-.06-2.16-3.8.08-3.99Z"/>
  <path class="st0" d="M88.05,114.15c.47-.13.93-.15,1.36.13,1.37,1.43.77,3.21-1.04,3.8-1.2-.7-1.86-1.83-1.22-3.17.21-.33.52-.65.9-.76Z"/>
</svg>