<?xml version="1.0" encoding="UTF-8"?>
<svg id="Camada_1" xmlns="http://www.w3.org/2000/svg" version="1.1" viewBox="0 0 200 200">
  <!-- Generator: Adobe Illustrator 30.0.0, SVG Export Plug-In . SVG Version: 2.1.1 Build 123)  -->
  <defs>
    <style>
      .st0 {
        stroke: #000;
        stroke-miterlimit: 10;
        stroke-width: 5px;
      }
    </style>
  </defs>
  <path class="st0" d="M160.32,26.77c8.15.69,17.09.22,25.02,2.28,4.69,1.22,8,3.01,9.05,8.04,2.52,12.09,1.08,34.33.96,47.43-.17,18.83-.78,36.9-.01,55.83.4,9.72.88,19.77.43,29.62-.14,3.13-.49,8.28-1.29,11.21-1.9,6.98-9.11,7.18-15.19,7.73-34.83,3.13-69.27,2.98-104.22,2.11-19.57-.49-40.65.89-59.96-2.15-7.25-1.14-10.14-3.98-10.69-11.4-1.17-15.6.98-32.55.87-48.39-.21-28.65-1.35-57.69.4-86.27.2-3.26-.27-5.82.93-9.07,1.7-4.61,6.73-5.3,11.01-6.08l21.86-.64c1.56-4.56-1.74-11.2,2.06-15.04,2.5-2.53,10.7-3.04,13.72-1.22,4.13,2.5,2.89,11.81,3.37,16.02,15.19-.32,30.49,1.27,45.63-.02,10.97-1.23,26.14,1.76,36.61-.1.34-.06,1.06-.17,1.15-.58-.25-6.38-2.14-14.31,5.52-16.9,6.05-2.05,11.17.16,12.28,6.66.15.87.52,3.81.52,4.48v6.46ZM148.02,39.69h6.25c.91-.75.96-1.61,1.06-2.69.57-6.28-1.06-13.57-.47-19.99-.64-5.41-8.03-4.16-8.27,1.28-.2,4.49-.07,13.83.39,18.26.07.71.42,2.93,1.04,3.13ZM53.13,40.05c.43-3.39.53-6.75.49-10.17-.01-.98-.42-1.9-.45-2.88-.07-2.27.5-10.74-1.05-11.87-1.13-.82-6.47-.2-7.06.8l.27,23.92c.58,1.69,6.37.78,7.81.21ZM58.61,32.19v6.46c0,.19-.43,2.9-.51,3.24-.81,3.38-5.46,3.93-8.43,4.07-3.29.16-8.07.05-9.2-3.75-.1-.34-.61-2.96-.61-3.14v-6.25c-.37-.59-.83-.58-1.44-.65-4.31-.51-21.52-.04-25.05,1.67s-2.49,8.06-2.67,11.5c-.05.99-.41,1.9-.45,2.88-.3,6.54-.18,13.33-.22,19.84l.5.33c2.9.19,5.81-.04,8.71.04,24.65.7,49.42.09,74.2-.38,30.98-.59,61.96-.16,92.95.38,1.22.02,2.68,1,3.57-.15.34-.37.34-.81.4-1.27.74-5.48-.18-13.94-.45-19.59-.36-7.41,1.9-12-7.05-13.8-7.07-1.42-14.76-.98-21.87-1.81l-.66.58v7.09c0,1.1-1.28,3.74-2.34,4.33-2.57,1.44-13.42,1.62-15.13-1.46-.18-.32-.88-2.66-.88-2.87v-7.09l-83.37-.21ZM189.87,73.92c-9.89-.67-19.85-.64-29.78-.86-21.23-.48-42.89-.37-64.16,0-21.05.36-41.92,1.17-62.94.8-7.57-.13-15.13-.16-22.69-.35-.27,1.01-.42,2.01-.48,3.06-1.29,22.97.98,46.99.45,70.06-.22,9.95-1.59,19.98-.87,30.01.39,5.5,1.63,6.4,6.94,7.23,18.21,2.84,37.09,1.25,55.37,1.73,36.24.96,70.06,1.49,106.3-1.69,2.29-.2,7.8-.69,9.61-1.65,1.46-.77,1.79-1.71,2.17-3.25.63-2.57.84-7.51.96-10.3.75-17.67-1.66-35.19-1.28-52.55.23-10.81.65-21.66.87-32.48.03-1.47.17-9.22-.48-9.77Z"/>
  <path class="st0" d="M136.7,118.33c-.52-.51-1.17-1.94-1.3-2.66-.31-1.76-.47-5.83-.53-7.81-.1-3.6-1.1-9.44,3.18-10.61,1.68-.46,6.38-.82,8.29-.89,3.24-.11,9.13-.38,10.46,3.33.98,2.75.95,14.77,0,17.54-.73,2.12-3.49,2.36-5.42,2.5-2.99.22-12.73.5-14.67-1.41ZM140.93,114.72h10.42c2.14-3.77.6-8.73.61-12.9-3.81-.96-7.56-.07-11.39.04l-.62.63c-.03,2.19-.19,4.42-.05,6.61.06,1.03.45,5.45,1.04,5.63Z"/>
  <path class="st0" d="M108.9,98.19c1.1,1.13,1.3,3.5,1.41,5.05.16,2.33.31,12.27-.33,13.88-.27.67-1.41,1.78-2.09,2.08-1.83.81-12.86.81-15.31.53-4.65-.53-4.58-4.74-4.81-8.53-.17-2.77-.3-7.79,0-10.45.19-1.61,1.24-3.01,2.81-3.44,3.24-.89,12.36-1.16,15.65-.41.77.17,2.13.75,2.66,1.3ZM92.79,102.43v8.75c0,.47.77,1.98.48,2.85l.56.69h10.84c2.03-3.73.64-8.42.44-12.53-3.59-1.8-7.48,0-11.28-.39l-1.04.62Z"/>
  <path class="st0" d="M45.6,96.92c2.71-.25,11.31-.57,13.39.53.46.25,1.41,1.22,1.65,1.69,1.18,2.28,1.24,13.73.9,16.63-.57,4.77-5.2,3.78-8.55,3.96-3.29.17-6.65.49-9.99-.03-1.53-.24-3.3-2.03-3.54-3.54-.54-3.42-.75-10.71-.46-14.16.39-4.67,2.43-4.69,6.6-5.07ZM55.9,101.8h-11.25l-.63.63v9.17c0,.12.42,2.24.48,2.43.27.84,3.69,1.08,4.71,1.13,2.51.12,4.85-.29,7.32-.44.15-2.34.5-4.52.43-6.9-.03-1.03-.49-5.85-1.06-6.03Z"/>
  <path class="st0" d="M97.29,137.77c2.79-.2,9.97-.33,11.97,1.54,1.37,1.28,1.81,4.61,1.88,6.45.1,2.59-.16,7.43-.43,10.02-.3,2.8-1.57,4.38-4.41,4.76-3.2.43-10.86.61-13.85-.24-4.55-1.29-4.07-9.01-3.84-12.87.45-7.76.82-9.08,8.69-9.65ZM97.71,142.77c-.74.08-2.49.2-2.98.35-.81.26-1.06,4.09-1.12,5.13-.08,1.39-.21,5.73.46,6.66.79.8,2.75,1.04,3.92,1.08,1.8.08,7.37,0,7.72-1.9.11-3.61.47-7.06-.17-10.64-2.35-1.1-5.28-.94-7.82-.68Z"/>
  <path class="st0" d="M143.14,138.6c4.11-.34,12.82-1.42,13.81,3.86.73,3.9.61,11,0,14.96-.52,3.4-4.53,3.78-7.28,3.98-2.81.21-10.52.24-12.51-1.65-2.72-2.6-2.27-14.97-.82-18.35,1.12-2.63,4.33-2.59,6.79-2.79ZM143.43,143.48l-2.66,1.09c-.04,3.32-1.1,7.5.01,10.72.57,1.67,8.7,1.06,10.5.62l.63-.63c.74-3.75.54-7.37,0-11.12l-.56-.69h-7.92Z"/>
  <path class="st0" d="M47.27,137.77c2.81-.25,10.39-.34,12.39,1.53,1.37,1.28,1.91,5.03,1.91,6.89,0,2.43-.25,6.69-.51,9.12-.85,7.94-7.08,4.24-12.66,5.6-3.24-.5-7.36.16-8.64-3.78-.87-2.66-.52-14.32.83-16.87,1.09-2.06,4.64-2.31,6.68-2.49ZM48.52,142.77c-.96.1-1.96.43-2.99.35-.39.07-.48.32-.6.65-.54,1.45-.86,9.8-.29,10.97.89,1.83,9.06,1,11.07.65.62-3.82,1.31-8.03.2-11.92-2.22-1.11-4.98-.94-7.39-.7Z"/>
</svg>