<?xml version="1.0" encoding="UTF-8"?>
<svg id="Camada_1" xmlns="http://www.w3.org/2000/svg" version="1.1" viewBox="0 0 500 500">
  <!-- Generator: Adobe Illustrator 30.0.0, SVG Export Plug-In . SVG Version: 2.1.1 Build 123)  -->
  <defs>
    <style>
      .st0 {
        fill: #fff;
      }
    </style>
  </defs>
  <polygon class="st0" points="474.14 25.5 474.5 25.5 474.5 474.5 25.5 474.5 25.5 474.14 474.15 474.15 474.14 25.5"/>
  <path d="M249.41,11.04c20.8-2.34,40.74,3.26,56.73,16.65,20.91,17.52,28.56,45.4,49.36,62.98,31.32,26.46,73.76,15.13,100.97,54.7,33.93,49.35-6.69,93.08,4.55,145.5,7.97,37.17,18.04,58.23,2.4,97.08-18.49,45.93-55.25,51.1-95.85,67.84-25.95,10.7-50.73,25.77-78.64,31.3-48.62,9.64-85.22-12.09-129.6-26.12-51.83-16.39-110.65-19.27-127.6-81.83-8.72-32.18,1.54-49.52,7.37-79.29,8.23-42.01-15.2-70.78,11.15-112.42,23.81-37.62,56.65-34.6,85.77-59.47,40.42-34.52,49.31-109.69,113.39-116.91ZM292.35,103.66c0-21.51-17.43-38.94-38.94-38.94s-38.94,17.43-38.94,38.94,17.43,38.94,38.94,38.94,38.94-17.43,38.94-38.94ZM178.77,151.44c-14.06,2.43-17.45,21.82-11.68,32.97,11.05,21.36,63.19,30.97,85.28,31.07,22.7.1,73.25-11.55,84.86-33.17,7.09-13.2,1.04-31.96-15.82-30.26-9.54.97-20.03,12.45-28.22,17.52-26.72,16.53-55.32,15.16-81.23-1.94-10.12-6.68-19.69-18.52-33.18-16.18ZM384.19,157.85c-28.02,4.74-20.56,67.6-7.68,85.13,15.09,20.54,37.77,12.01,44.81-10.28,7.61-24.12-3.42-80.55-37.13-74.85ZM123.43,194c-30.33.62-59.19,57.47-33.1,77.59,27.64,21.32,53.92-39.08,51.73-60.55-.99-9.67-8.69-17.24-18.63-17.04ZM247.79,245.34c-17.08,2.16-51.98,25.33-57.61,41.89-2.18,6.43-1.57,10.19,1.5,16.22,6.77,13.29,43.57,43.98,58.38,45.93,20.64,2.72,42.2-16.21,54.92-30.8,13.28-15.24,18.72-25.86,4.01-42.57-14.15-16.08-38.87-33.49-61.2-30.67ZM387.42,303.91c-21.6,2.95-32.11,30.19-43.29,45.78-8.65,12.07-18.08,21.39-30.09,30.09-11.14,8.07-38.17,19.14-29.81,36.53,12.66,26.32,61.3,4.49,79.6-4.39,24.86-12.06,54.24-29.09,60.3-58.46,5.17-25.03-7.35-53.57-36.71-49.55ZM114.62,305.55c-29.67,1.86-40.55,29.36-32.69,55.48s33.01,41.33,56.95,51.38c19.47,8.17,77.41,30.35,88.93,3.11,7.25-17.14-14.86-26.67-25.81-34.93-8.62-6.5-17.47-13.8-24.64-21.9-18.51-20.88-28.97-55.26-62.73-53.14Z"/>
</svg>