<?xml version="1.0" encoding="UTF-8"?>
<svg id="Camada_1" xmlns="http://www.w3.org/2000/svg" version="1.1" viewBox="0 0 200 200">
  <!-- Generator: Adobe Illustrator 30.0.0, SVG Export Plug-In . SVG Version: 2.1.1 Build 123)  -->
  <defs>
    <style>
      .st0 {
        fill: #222123;
      }
    </style>
  </defs>
  <path class="st0" d="M72.23,171.7c-.36.81-.96,4.54-1.43,4.94-.96.82-1.06-1.58-1.2-2.14-.23-.88-.51-1.76-.75-2.64-.65-.29-3.77-.61-4.02-1.03-.1-.16-.13-.39-.07-.57.11-.32,3.29-.92,3.8-1.34.41-.44.4-3.2.77-4.02.1-.22.39-.39.61-.34.52.11,1.41,3.46,1.93,4.03.96.17,1.93.29,2.9.41.4.05,2.44-.1,1.59.92-.44.53-3.36,1.28-4.11,1.76ZM74.18,169.84l-3.08-.48-1.22-2.66-.48,2.91c-.22.27-1.65.51-2.1.71-.2.09-.3-.08-.23.35l2.5.57.9,3.24,1.06-3.41,2.66-1.23Z"/>
  <path class="st0" d="M61.55,156.45c.24-.06.31.06.47.14.61.27,2.71,1.52,3.21,1.92s.45.95-.23.9c-.21-.01-3.19-1.76-3.46-2.01-.36-.32-.62-.79.01-.95Z"/>
  <path class="st0" d="M86.93,166.86c.51-.5,2.9,1.94,3.56,2.15.5.52.28,1.24-.54.87-.2-.09-2.73-1.96-2.86-2.11-.24-.3-.18-.57-.17-.91Z"/>
  <path class="st0" d="M70.06,153.76c-.15-1.04-1.52-2.98-1.52-3.87,0-.25.04-.43.26-.58.3-.05.4.03.56.27.11.16,1.44,3.31,1.48,3.5.12.64-.18.8-.78.68Z"/>
  <path class="st0" d="M94.37,157.93l-.07.66c-.11.17-3.64.99-3.99.97-.64-.04-.79-.68.02-.97.62-.23,2.87-.7,3.53-.75.18-.01.34.05.51.08Z"/>
  <path class="st0" d="M68.35,174.05l-2.4,1.67-.45,3.54-1.45-3.03c-1.03-.04-2.07-.07-3.1-.11h0c.89-.49,1.77-.98,2.66-1.46l-.04-2.95,1.67,2.41,3.11-.06Z"/>
  <g>
    <path class="st0" d="M78.87,162.12c-.29.28-.37.62-.83.91-1.53.97-1.93-.17-2.04-1.55-.41-5.07-.16-10.18-.34-15.22-.15-4.13-.15-9.39-.67-13.39-.44-3.44-1.05-3.4-.13-7.12,1.73-7.07,4.99-14.05,7.35-20.96,1.27-3.74,2.22-7.62,3.56-11.33,1.18-3.26,2.68-6.42,3.89-9.69,1.59-4.32,2.9-8.74,4.48-13.06,1.7-4.64,3.86-9.28,5.45-13.91.16-.46.89-2.47.91-2.74.04-.57-.29-1.14-.12-1.94.16-.76,1.11-1.7,1.25-2.23.32-1.21-.14-1.78.86-3.11.18-.24.64-.39.67-.53.14-.61-.06-1.24.25-2.03.21-.56.94-1.13,1.04-1.44.45-1.45.67-3.31,1.19-4.94,1.98-6.23,4.22-13.86,11.86-14.62,3.51-.35,11.19,3.03,14.58,4.59,2,.92,4.59,2.08,5.71,4.05,2.64,4.66-.28,8.07-1.96,12.34-.95,2.43-1.53,5.34-2.62,7.64-.2.43-1.18,1.65-1.2,1.76-.09.52.13.96-.16,1.85-.19.58-.83,1.35-.88,1.62-.1.61.28,1.01.06,1.86-.21.78-1,1.36-1.15,1.84-.13.43.1.69.06,1.04-.16,1.59-1.51,2.14-2.02,3.44-2.7,6.83-5.38,14.17-7.66,21.14-.7,2.13-1.14,4.44-1.91,6.53-.95,2.56-2.65,5.06-3.79,7.63-4.34,9.69-8.3,21.22-11.05,31.49-.18.66-.64,2.09-.66,2.66-.04.84.68,1-.17,1.97-1.04,1.18-2.59,2.46-3.73,3.72-6.71,7.41-12.79,14.83-20.05,21.74ZM105.63,42.23c1.95-.27,3.83.33,5.7.84,6.95,1.88,14.57,4.75,20.2,9.26,1.53-2.41,1.98-5.3,2.99-7.94,1.46-3.8,4.98-8.4,2.06-12.34-1.67-2.24-8.31-4.72-11.09-5.79-4.59-1.75-8.07-3.24-12.56-.16-2.81,1.93-4.27,6.37-5.39,9.51-.28.78-2.16,6.37-1.91,6.62ZM130.29,55.8c.28-.99.77-1.55.24-2.64s-5.21-3.68-6.47-4.29c-3.91-1.91-11.66-4.82-15.88-5.48-2.09-.33-3.43.06-3.88,2.31,2.01.03,4.05.53,5.99,1.04,5.91,1.56,11.8,4.08,17.12,7.04l2.87,2.01ZM129.3,59.28c1.01-1.73.23-2.54-1.08-3.64-3.27-2.74-10.94-5.72-15.14-7.04-1.81-.57-5.68-1.73-7.44-1.83-1.43-.08-2.62.99-2.66,2.41,1.47-.29,3.17.23,4.64.58,4.52,1.08,9.62,2.9,13.85,4.86,2.72,1.26,5.52,2.75,7.83,4.66ZM103.6,50.2c-.89.14-2.18,2.24-1.91,3.16.06.21.62.86.84.98,1.1.64,5.23,1.37,6.78,1.83,5.98,1.78,11.84,4.03,17.3,7.04,1.53.15,2.23-1.14,2.03-2.54-.08-.55-.75-1.12-1.18-1.47-4.27-3.46-16.34-8-21.8-8.82-.36-.05-1.8-.22-2.07-.18ZM108.44,57.13c-1.6-.37-3.17-.88-4.76-1.29-.72-.19-1.49.06-2.14-.68l-.23.06c-2.25,5.95-4.68,11.83-6.86,17.81-2.46,6.76-4.95,13.46-7.45,20.19-1.27,3.43-2.12,6.99-3.28,10.46-2.6,7.77-5.98,15.28-8.06,23.22,1.43-.23,2.76.17,3.43,1.53.32.64.35,1.91,1.2,2.13.46.12,1.77-1.24,2.24-1.59.18-.13.47-.1.58-.28.42-.7.99-3.36,1.36-4.4,2.65-7.38,5.41-14.78,8.16-22.13.86-2.29,2.04-4.47,2.8-6.8.9-2.74,1.44-5.62,2.4-8.36s2.21-5.14,3.15-7.77c1.74-4.86,3.11-9.88,4.75-14.78.82-2.46,1.79-4.89,2.69-7.32ZM91.29,132c.66-.39,1.32-.72,2.09-.81,2.94-6.57,4.68-13.6,7.11-20.36,2.11-5.87,4.69-11.59,6.92-17.42,3.09-8.08,5.91-16.21,8.74-24.37.37-1.07,3.16-7.59,3.04-8.01-2.94-1.62-6.34-2.51-9.55-3.56l-.37.04c-3.29,7.94-5.34,16.37-8.36,24.42-.55,1.48-1.35,2.9-1.91,4.38-1.3,3.49-1.97,7.2-3.23,10.67-.69,1.9-1.64,3.7-2.35,5.59-3.17,8.46-6.1,17.02-9.28,25.48l-.03.38c.88-.29,2.07.23,2.65.91.75.89.85,3.22,1.5,3.63,1.02.66,1.91-.16,2.76-.68.15-.09.21-.29.27-.32ZM101.82,134.26c.34-1.43.69-2.86,1.12-4.27,3.41-11.14,7.05-22.87,12.21-33.31.66-1.34,1.62-2.55,2.15-3.97.43-1.16.6-2.52.96-3.67,2.58-8.25,5.73-16.27,8.7-24.38l-6.39-3.19-.52-.02c-.64,2.01-1.57,3.92-2.29,5.9-3.1,8.41-5.91,16.93-9.11,25.31-2.5,6.55-5.38,12.99-7.72,19.59-1.36,3.85-2.36,7.82-3.73,11.66-.87,2.44-2.06,4.78-2.8,7.28,1.88.79,1.66,2.35,2.21,3.89.46,1.26,2.24-.72,3.22-.92.69-.14,1.33-.11,1.99.09ZM77.61,128.35c-.68-.62-1.7-.37-2.11.36-.07,1.18.09,2.23.5,3.33l.84,18.28c3.18.04,6.6,1.19,9.33,2.8,3.69-3.82,7.02-7.96,10.54-11.93,1.27-1.44,2.82-2.81,4.03-4.29.32-.39,1.28-1.33.4-1.7-1.15-.47-2.7,1.52-4.02,1.56-2.49.06-1.23-3.77-2.84-4.28-2.32-.73-3.77,2.74-6.05,1.9-2.17-.8-1.3-3.7-2.72-4.56-2.36-1.44-4.18,3.29-6.17,1.7-.84-.67-.96-2.48-1.72-3.17ZM85.08,153.81c-.23-.4-3.58-1.6-4.25-1.79s-3.19-.97-3.64-.51c-.39.4-.22,3.44-.21,4.19,0,.64-.03,1.4,0,1.98.06,1.34.36,2.7.34,4.05l1.98-1.49-.08-.33c-1.68,1.09-1.73-.28-1.57-1.74.03-.27.11-.67.33-.83.53-.36.26,1.82.33,1.9.67.12,1.58-2.11,2.07-1.33.36.71-.75,1.19-.91,1.58-.09.2.04.31.24.24l5.22-5.37c.13-.15.24-.39.13-.57Z"/>
    <path class="st0" d="M108.09,106.59c-.28.01-.69.2-.64-.22.05-.38.59-2.17,1.07-2.07.58.65-.41,1.59-.43,2.29Z"/>
    <path class="st0" d="M112.72,31.77l-.63.03c.23-2.39,3.05-5.17,5.42-5.44.41-.05.96.42.53.72-2.5.46-4.42,2.36-5.32,4.69Z"/>
    <path class="st0" d="M111.42,33.62c.2.21-.9,2.52-1.07,2.99-.2.57-1.08,3.8-1.5,3.8-.09,0-.37-.34-.38-.54,0-.46.96-3.13,1.21-3.75.1-.25,1.15-3.11,1.73-2.49Z"/>
    <path class="st0" d="M132.11,45.37c.17.17-.62,2.7-.8,3.09-.2.44-.43.98-1.02.88.02-.23-.13-.47-.08-.68.15-.67,1.15-2.02,1.2-2.91.13-.35.33-.43.7-.38Z"/>
    <path class="st0" d="M117.16,28.84l.39.23c.06.7-.74.76-1.17,1.15s-.56,1.27-1.23,1.25c-.57-.15.29-1.42.5-1.64.4-.43,1.02-.65,1.5-.98Z"/>
    <path class="st0" d="M133.03,41.57l.5.16.07.24c-.62,2.99-1.93,1.95-.57-.4Z"/>
    <path class="st0" d="M119.8,26.68c2.11.16,1.08,1.44-.26.4l.26-.4Z"/>
    <path class="st0" d="M104.14,51.17c.2.56-.5.99-.49,1.41.01.56,1.02.53.83,1.24-2.22.66-2.4-2.52-.33-2.65Z"/>
    <path class="st0" d="M106.79,52.49c-.36.02-1.77.1-1.49-.58s1.82.29,1.49.58Z"/>
    <path class="st0" d="M106.46,54.31c-.52.42-1.98-1.1-.45-.8.44.09.78.53.45.8Z"/>
    <path class="st0" d="M78.48,151.8l-.16.83c.36-.18,1.96-.33,1.65.41-.19.45-.73.08-1.04.12-1.04.13-.43,1.51-.64,2.18-.08.27-.48.38-.63.27-.12-.08-.28-2.68-.25-2.83.07-.35.62-1.07,1.07-.97Z"/>
  </g>
  <path class="st0" d="M66.55,165.99l-1.18.82-.22,1.74-.71-1.49c-.51-.02-1.02-.03-1.53-.05h0c.44-.24.87-.48,1.31-.72l-.02-1.45.82,1.19,1.53-.03Z"/>
  <path class="st0" d="M75.16,172.73l-.81.56-.15,1.19-.49-1.02c-.35-.01-.69-.02-1.04-.04h0c.3-.16.59-.33.89-.49v-.99s.55.81.55.81l1.04-.02Z"/>
</svg>