<?xml version="1.0" encoding="UTF-8"?>
<svg id="Camada_1" xmlns="http://www.w3.org/2000/svg" version="1.1" viewBox="0 0 500 500">
  <!-- Generator: Adobe Illustrator 30.0.0, SVG Export Plug-In . SVG Version: 2.1.1 Build 123)  -->
  <defs>
    <style>
      .st0 {
        fill: #c9bc4a;
      }
    </style>
  </defs>
  <path class="st0" d="M446.39,219.77c-21.77,21.91-50.62,39.92-73.23,60.68-16.4,15.05-14.07,20.51-8.42,40.53,11.26,39.89,26.91,78.81,38.52,118.62,1.98,15.38-.38,25.82-18.02,24.52-13.37-.98-57.4-31.26-70.3-40.43-16.98-12.08-38.23-33.31-55.11-42.71-13.39-7.45-19.6-.27-30.13,7.77-31.38,23.95-62.48,60.48-93.99,82.41-21.33,14.85-35.68,7.03-35.2-19.02.77-41.66,27.12-94.23,33.34-135.17,1.36-8.93-.85-16.47-6.03-23.67-10.24-14.23-38.39-32.31-52.94-44.88-11.01-9.52-49-40.19-53.7-50.53-13.36-29.41,36.51-24.65,52.99-24.14,29.57.92,60.08,6.13,89.8,3.34,12.91-1.22,17.24-6.63,22.05-18.04,15.53-36.82,19.51-81.69,38.49-118.67,6.21-12.1,15.41-25.99,30.82-15.71,16.02,10.68,40.4,94.78,49.76,117.02,4.11,9.77,7.9,22.23,18.67,26.23,19.8,7.36,67.19-4.11,90.26-5.4,56.82-3.16,77.81,11.51,32.38,57.24ZM235.27,95.24l17.32-8.75c-1.75-5.3-2.67-11.22-6.91-15.27-7.64,5.9-9.46,14.95-10.42,24.02ZM344.31,225.16c-8.9-4.94-30.39,7.85-15.27,14.37,4.46.09,18.31-10.03,15.27-14.37ZM125.61,241.31c-.9.25-3.22,2-1.9,3.13,1.74,5.6,21.42,22.59,25.85,16.05,4.61-10.5-16.16-21.31-23.95-19.18ZM349.09,356.65c-2.88-2.4-4.52,3.57-4.69,5.78-.71,9.25,4.81,21.85,14.33,24.66,1.32-11.63-4.09-20.94-9.64-30.45ZM150.24,395.14c-5.58-4.06-10.89,23.17-9.58,27.24,3.6,3.8,25.76-18.12,27.24-21.66,1.42-3.41-2.06-2.15-3.58-2-5.18.52-13.06,4.59-14.07-3.58Z"/>
</svg>