<?xml version="1.0" encoding="UTF-8"?>
<svg id="Camada_1" xmlns="http://www.w3.org/2000/svg" version="1.1" viewBox="0 0 500 500">
  <!-- Generator: Adobe Illustrator 30.0.0, SVG Export Plug-In . SVG Version: 2.1.1 Build 123)  -->
  <defs>
    <style>
      .st0 {
        fill: #2f83c2;
      }
    </style>
  </defs>
  <path class="st0" d="M424.34,103.05c-42.89-52.14-119.22-85.65-186.76-81.13-94.09,6.29-173.17,75.92-202.93,163.34-32.88,96.6,15.43,211.05,103.39,260.24,71,39.71,142.65,44.48,217.01,9.36,129.93-61.37,157.95-244.04,69.29-351.81ZM252.48,447.41c-107.91,0-195.38-87.48-195.38-195.38S144.58,56.64,252.48,56.64s195.38,87.48,195.38,195.38-87.48,195.38-195.38,195.38Z"/>
  <path class="st0" d="M325.71,288.57c-16.46-12.24-35.77-22.65-53.06-33.82.08-5.34-8.64-14.2-9.21-16.3-.69-2.56,1.16-5.99,1.22-9.01.42-24.95,1.83-58.64-1.52-82.81-.91-6.54-5.73-11.44-12.62-10.91-4.79.36-7.94,6.66-8.53,10.91-2.6,18.7-3.17,43.32-4.18,62.65-.43,8.28,1.44,20.71.03,28.1-.72,3.79-5.37,5.27-6.37,9.67-2.07,9.13.5,19.17,8.63,24.22,6.91,4.29,11,1.46,16.43,3.62,3.71,1.47,15.01,10.83,19.68,13.74,12.83,7.99,28.25,18.97,41.44,25.4,7.12,3.47,14.21,7.42,20.5-.39,8.88-11.03-4.58-19.21-12.43-25.05Z"/>
  <path class="st0" d="M422.1,253.79c-2.16-13.06-26.07-13.14-32.77-5.94-5.15,5.54-1.91,15.99,4.55,18.01,9.46,2.96,30.55,1.98,28.22-12.07Z"/>
  <path class="st0" d="M86.42,245.04c-3.37.75-8.16,5.33-8.77,8.73-3.13,17.51,35.45,19.88,34.65,1.04-.49-11.57-17.55-11.63-25.88-9.77Z"/>
  <path class="st0" d="M257.06,110.91c6.5-3.32,5.64-15.29,4.88-21.91-.78-6.8-5.48-10.57-12.37-9.75-16.42,1.96-13.53,42.39,7.49,31.66Z"/>
  <path class="st0" d="M248.19,393.4c-12.74,2.75-11.63,42.17,8.88,31.63,7.24-3.72,7.87-23.62,1.55-29.26-2.96-2.64-6.58-3.2-10.43-2.37Z"/>
</svg>