<?xml version="1.0" encoding="UTF-8"?>
<svg id="Camada_1" xmlns="http://www.w3.org/2000/svg" version="1.1" viewBox="0 0 500 500">
  <!-- Generator: Adobe Illustrator 30.0.0, SVG Export Plug-In . SVG Version: 2.1.1 Build 123)  -->
  <defs>
    <style>
      .st0 {
        fill: #a2cc86;
      }
    </style>
  </defs>
  <path class="st0" d="M436.27,57.93c-6.66,1.29-12.88,8.39-17.54,13.04-49.39,49.3-93.56,110.02-144.44,158.95l-106.33,105.64c-1.56.58-3.04.43-4.6,0-4.81-1.33-54.16-66.86-63.2-76.96-22.79-25.45-35.46-46.23-68.19-17.87-10.5,9.09-22.59,21.81-15.03,36.47,40.89,45.87,75.57,104.16,117.28,148.41,13.09,13.89,25.5,24.18,44.05,9.89,101.17-107.07,213.05-204.13,306.11-318.6,7.48-22.06-26.18-63.18-48.1-58.95Z"/>
</svg>