<?xml version="1.0" encoding="UTF-8"?>
<svg id="Camada_1" xmlns="http://www.w3.org/2000/svg" version="1.1" viewBox="0 0 200 200">
  <!-- Generator: Adobe Illustrator 30.0.0, SVG Export Plug-In . SVG Version: 2.1.1 Build 123)  -->
  <defs>
    <style>
      .st0 {
        stroke: #1d1d1b;
        stroke-miterlimit: 10;
        stroke-width: 2px;
      }
    </style>
  </defs>
  <path class="st0" d="M51.42,42.75c12.63-.56,36.78.32,45.59,10.62.76.88,2.9,3.57,2.1,4.72-1.82.97-3.19-1.57-4.46-2.62-12.9-10.63-40.19-10.56-55.98-7.71-16.97,3.07-22.44,9.39-25.96,25.97s-3.85,36.55-.83,52.5c2.35,12.41,6.27,19.18,18.77,22.99,15.65,4.77,45.39,5.26,59.52-3.77,1.49-.95,4.24-3.68,5.47-4.19.81-.33,1.58-.36,1.98.51.43,1.56-3.72,5.27-4.94,6.18-14.47,10.76-52.54,10.09-68.44,2.73-13.9-6.44-16.17-20.62-17.39-34.54-1.37-15.69-.65-47.56,8.92-60.5,7.52-10.17,23.83-12.36,35.65-12.89Z"/>
  <path class="st0" d="M139.88,42.75c12.05-.66,28.03-.07,38.24,7.02,16.79,11.67,16.5,46.34,14.79,64.54-2.3,24.42-10.6,37.64-35.7,41.81-11.93,1.98-38.39,2.99-47.56-6.05-9.16-9.02-1.46-26.18-6.77-33.41-3.59-4.88-10.26-.73-14.61.52-27.11,7.78-32.5-30.29-12.78-38.62,4.67-1.97,8.94-1.8,13.63-.07,4.21,1.56,10.78,7.19,13.63.45,3.37-7.97-2.01-20.74,4.96-27.14,6.18-5.68,23.87-8.6,32.18-9.05ZM144.06,46.14c-8.01.25-29.24,2.78-34.53,9.05-5.22,6.19,2.42,25.79-7.96,29.88-6.76,2.66-11.28-3.72-17.62-4.3-21-1.91-22.77,35.58-1.04,33.92,6.85-.53,14.17-7.04,20.94-2.14,10.39,7.51-2.42,30.34,12.06,37.52,12.53,6.21,41.7,4.28,54.38-1.48,13.06-5.94,17.19-18.79,18.69-32.19,1.85-16.46,2.38-50.37-11.09-62.23-7.46-6.56-19.45-7.54-28.95-8.11l-4.89.09Z"/>
</svg>