<?xml version="1.0" encoding="UTF-8"?>
<svg id="Camada_1" xmlns="http://www.w3.org/2000/svg" version="1.1" viewBox="0 0 500 500">
  <!-- Generator: Adobe Illustrator 30.0.0, SVG Export Plug-In . SVG Version: 2.1.1 Build 123)  -->
  <defs>
    <style>
      .st0 {
        fill: #fff;
      }
    </style>
  </defs>
  <polygon class="st0" points="15.68 484.69 15.31 484.69 15.31 15.31 484.69 15.31 484.69 15.68 15.68 15.68 15.68 484.69"/>
  <path d="M387.12,11.19c37.05-3.22,64.84,21.68,69.85,57.73,2.33,16.77-.97,30.5-1.58,46.67-1.33,35.26,18.82,61.23,22.19,95.27,3.93,39.7-18.3,71.39-15.58,109.17,1.34,18.56,9.63,36.09,12.19,54.31,9.07,64.42-44.29,90.86-101.05,82.17-13.62-2.09-26.68-7.46-40.01-10.06-57.93-11.33-77.94,30.11-128.07,40.28-43.54,8.83-62.65-8.84-98.81-24.39-19.5-8.38-38.03-12.37-55.12-26.15-26.34-21.24-39.67-60.63-19.18-90.55,8.43-12.31,21.77-19.52,28.48-33.92,5.59-12,5.34-23.29,7.75-35.77,10.72-55.61,59.34-35.68,92.92-63.07,23.91-19.5,21.87-51.88,40.68-74.25,25.04-29.76,65.58-19.91,94.66-40.8,19.38-13.92,21.45-37.31,35.05-55.26,12.53-16.54,34.84-29.57,55.65-31.38ZM390.37,79.3c-18.28,2.69-36.46,31.3-37.6,48.6-2.76,41.93,65.31,43.67,74.5,8,6.09-23.64-7.58-60.91-36.9-56.6ZM322.71,163.93c-5.88,5.8-3.05,22.58-.3,29.7,14.37,37.09,66.05,39.74,93.99,16.79,6.04-4.96,20.45-21.6,14.78-29.51-4.65-6.49-18.25,2.31-24.39,4.31-22.72,7.4-45.03,4.78-63.42-10.92-4.87-4.16-13.59-17.35-20.67-10.37ZM282.77,183.58c-7.94.05-12.73,13-14.14,19.44-18.9,86.72,85.68,112.43,146.5,74.25,10.69-6.71,27.94-23.34,27.82-36.88-.15-17.24-22.65-1.58-29.66,1.39-38.72,16.4-89.22,13.58-111.02-27.2-3.68-6.89-10.67-31.06-19.51-31ZM222.04,245.11c-6.04,1.26-12.23,11.34-14.43,16.76-5.99,14.71-5.41,32.2,3.32,45.7,11.88,18.35,28.1,9.19,33.09-8.46,3.1-10.97,1.78-24.49-1.63-35.31-2.83-8.97-9.05-21.03-20.35-18.68ZM158.02,309.97c-9.51,1.62-18.88,11.9-21.98,20.71-9.54,27.17,15.04,49.13,39.7,33.96,26.97-16.59,9.95-59.38-17.72-54.67ZM277.12,314.07c-14.81.94-37.23,19.08-29.03,35.16,7.42,14.56,41.06,22.75,56.01,29.37,21.31,9.44,36.94,22.71,62.16,19.76,22.02-2.57,45.69-29.04,56.16-47.28,8.42-14.66,17.2-38.35-9.87-35.33-13.05,1.46-27.53,7.55-41.39,9.51-19.7,2.78-38.38,2.6-57.77-1.93-10.46-2.44-26.26-9.9-36.27-9.27ZM87.42,360.05c-10.69,1.81-20.46,16.16-21.12,26.5-1.5,23.6,25.34,31.94,39.37,13.92,12.87-16.52,4.81-44.33-18.26-40.42ZM213.04,371.56c-11.99,1.64-20.15,12.41-28.97,19.47-11.54,9.24-21.51,15.58-35.14,21.51-8.13,3.54-44.5,12.78-24.93,25.47,19.53,12.67,59.52,10.3,81.2,4.53,20.11-5.35,73.67-29.76,45.81-55.19-9.45-8.62-24.87-17.58-37.97-15.79Z"/>
</svg>