<?xml version="1.0" encoding="UTF-8"?>
<svg id="Camada_1" xmlns="http://www.w3.org/2000/svg" version="1.1" viewBox="0 0 200 200">
  <!-- Generator: Adobe Illustrator 30.0.0, SVG Export Plug-In . SVG Version: 2.1.1 Build 123)  -->
  <defs>
    <style>
      .st0 {
        stroke: #1d1d1b;
        stroke-miterlimit: 10;
        stroke-width: 2px;
      }
    </style>
  </defs>
  <path class="st0" d="M134.35,89.73c12.97-12.83,16.48-33.33,10.53-50.36-3.51-10.05-11.26-20.42-21.72-23.82-1.45-.47-3.58-.65-4.77-1.13-1.42-.57-.41-1.08.52-1.37,11.01-3.49,22.25,6.64,27.66,15.19,10.01,15.83,10.5,36.66,2.15,53.31-5.88,11.72-16.26,20.07-28.44,24.65,2.82,1.16,5.93,1.74,8.86,2.71,25.23,8.34,46.42,29.82,49.63,57.02,2.59,21.95-16.41,24.22-33.39,26.72-20.18,2.96-40.7,3.76-61.07,3.09-15.29-.5-45.62-2.23-57.47-12.37-8.76-7.5-5.97-20.39-2.6-29.97,8.71-24.76,30.19-41.72,55.69-46.83.1-.54-.03-.38-.3-.53-2.44-1.34-5.5-2.24-8.12-3.68-35.04-19.37-34.7-73.25,1.09-91.48,12.76-6.5,35.1-9.73,48.3-3.45,2.57,1.22,2.34,2.37-.52,2.63-2.6.24-5.85-.42-8.48-.48-11.79-.27-22.53.59-33.32,5.63-21.13,9.88-30.07,32.57-24.12,54.88,9.17,34.4,55.43,43.83,79.88,19.64ZM98.29,110.17c-25.96.73-49.8,11.97-62.52,35.16-4.43,8.08-11.36,25.39-3.62,32.96s32.1,9.68,42.48,10.37c24,1.6,49.77.22,73.54-3.61,15.13-2.44,26.42-4.13,22.49-22.82-7.08-33.65-39.31-53-72.37-52.07Z"/>
</svg>