<?xml version="1.0" encoding="UTF-8"?>
<svg id="Camada_1" xmlns="http://www.w3.org/2000/svg" version="1.1" viewBox="0 0 500 500">
  <!-- Generator: Adobe Illustrator 30.0.0, SVG Export Plug-In . SVG Version: 2.1.1 Build 123)  -->
  <defs>
    <style>
      .st0 {
        fill: #fff;
      }
    </style>
  </defs>
  <polygon class="st0" points="489.25 10.37 489.63 10.37 489.63 489.63 10.37 489.63 10.37 489.25 489.25 489.25 489.25 10.37"/>
  <path d="M430.57,321.68c38.76,41.07-4.96,74.22-38.02,97-39.77,27.4-60.21,23.58-103.99,32.98-32.2,6.92-39.33,19.5-64.65,34.08-40.25,23.17-70.34-18.3-101.74-37.56-27.8-17.05-59.21-20.24-68.15-57.26-6.57-27.21,7.23-43.55,9.4-68.34,2.68-30.62-9.88-55.11-15.48-83.91-9.29-47.81,10.73-53.83,36.92-85.88,16.76-20.51,30.96-44.52,41.37-68.92,14.95-35.05,20.2-91.63,73.61-72.7,10.67,3.78,43.66,19.91,50.83,27.44,7.16,7.53,8.88,21.18,18.42,26.06,18.36,9.39,33.18-12.92,47.34-20.08,19.93-10.08,48.68-4.2,63.32,12.6,21.52,24.7,4.9,68.18,30.41,83.44,15.65,9.36,28.34,8.68,38.66,27.15,6.89,12.33,6.7,18.5,2.97,31.74-8.06,28.66-25.59,42.8-37.96,66.99-13.96,27.31-.06,37.37,16.74,55.16ZM231.43,112.14c1.25-1.24,1.33-3.35.31-4.73s-12.16-5.48-15.48-7.67c-9.19-6.06-13.19-14.51-15.95-24.95-1.77-6.73-.96-16.31-6.45-21.11-3.75.03-9.01,22.05-10.97,26.36-3.65,8.02-10.49,15.86-18.49,19.75-3.66,1.78-16.04,3.95-16.39,7.71.6,4.53,7.62,5.54,11.53,8.04,10.18,6.53,15.87,15.77,19.01,27.24,1.81,6.61,1.11,15.9,6.55,20.12,5.15.96,7.17-14.81,8.53-18.76,3.47-10.05,9.32-19.49,18.76-24.82,3.76-2.13,18.05-6.19,19.05-7.18ZM310.57,91.21c-13.39,2.74-15.25,25.81-.15,28.2,23.84,3.77,25.65-33.41.15-28.2ZM352.43,139.27c-17.21,1.51-36.95,16.47-42.93,32.7-17.97,48.68,45.85,98.07,86.28,62.26,6.6-5.84,16.99-21.67,16.4-30.6-.87-13.07-11.5-.69-15.69,1.96-32.77,20.67-66.52-12.12-47.89-46.11,2.05-3.75,11.64-13.93,11.89-14.85,1.33-4.79-4.45-5.68-8.06-5.36ZM255.43,152.59c-11.47,1.96-34.58,17.97-32.48,31.14.58,3.65,3.79,6.46,7.46,6.88,7.68.89,29.87-11.16,35.02-17.35,9.47-11.37,6.84-23.55-9.99-20.67ZM128.26,174.85c-21.18,2.9-34.96,34.04-11.96,44.41,23.11,10.41,47.81-21.31,29.87-38.76-4.82-4.69-11.3-6.55-17.91-5.64ZM299.03,257.54c-1.13-1.04-10.43-3.71-13.15-5.08-7.72-3.87-11.44-8.38-14.97-16.16-1.15-2.55-5.28-20.68-9.76-13.06-1.41,2.4-2.57,10.19-3.93,13.85-2.59,6.98-4.9,11.22-11.41,15.27-4.13,2.57-10.53,3.82-13.62,5.95-6.06,4.18,10.24,8.57,13.39,10.43,6.13,3.61,9.58,7.69,12.62,14.06,1.34,2.8,6.24,22.23,11.01,13.42,1.68-3.11,2.29-10.09,3.82-13.97,2.84-7.23,7.58-12.28,14.37-15.87,4.18-2.21,9.81-2.59,12.47-6.82-.18-.64-.38-1.61-.84-2.03ZM195.01,243.54c0-7.26-5.89-13.15-13.15-13.15s-13.15,5.89-13.15,13.15,5.89,13.15,13.15,13.15,13.15-5.89,13.15-13.15ZM101.01,249.39c0-4.85-3.93-8.79-8.79-8.79s-8.79,3.93-8.79,8.79,3.93,8.79,8.79,8.79,8.79-3.93,8.79-8.79ZM137.2,277.16c-25.27,1.77-29.78,27.25-32.63,47.44-3.46,24.49-7.67,66.42,17.4,81.12,24.37,14.28,44.39-10.58,64.06-21.9,17.12-9.85,44.21-15.87,41.08-41.44-2.37-19.36-28.89-28.73-42.89-38.94-13.9-10.13-27.94-27.62-47.02-26.28ZM355.96,282.43c-14.68,2.12-13.63,25.78,2.33,24.68s15.46-27.25-2.33-24.68ZM304.35,322.47c-7.22,1.22-12.73,7.9-17.01,13.23-8.55,10.64-21.06,25.67-11.95,39.34,3.7,5.55,29.61,21.33,36.27,22.43,10.1,1.67,19.14-5.14,21.86-14.71,2.62-9.25.09-38.77-4.17-47.45-4.84-9.85-14.08-14.68-24.98-12.84ZM383.69,384.47c3.1-8.04,3.09-15.58,11.33-20.25,2.21-1.25,12.28-3.59,6.87-7.19-3.19-2.12-7.95-1.75-11.91-5.87-3.28-3.42-6.68-16.86-9.26-16.41-2.19.38-4.89,12.93-7.65,16.42-3.56,4.5-7.6,4.21-11.01,6.78-5,3.77,3.74,5.48,6.14,6.98,3.5,2.19,6.74,5.49,8.58,9.21,1.81,3.65,1.68,10.84,6.9,10.33ZM238.58,403.46c-17.06,1.74-35.43,10.63-46.05,24.22-6.28,8.04-11.25,23.65,3.98,23.62,10.02-.02,28.07-15.11,37.78-20.1,8.06-4.14,16.55-6.39,24.63-10.06,5.64-2.56,14.61-5.82,9.98-13.84-3.11-5.39-24.31-4.45-30.32-3.84Z"/>
</svg>