<?xml version="1.0" encoding="UTF-8"?>
<svg id="Camada_1" xmlns="http://www.w3.org/2000/svg" version="1.1" viewBox="0 0 200 200">
  <!-- Generator: Adobe Illustrator 30.0.0, SVG Export Plug-In . SVG Version: 2.1.1 Build 123)  -->
  <defs>
    <style>
      .st0 {
        stroke: #000;
        stroke-miterlimit: 10;
        stroke-width: 5px;
      }
    </style>
  </defs>
  <path class="st0" d="M86.2,10.57c12.19-.21,22.35,1.29,34.15,1.82,10.67.48,21.89-.46,32.7-.34,3.95.04,8.45.7,12.35.67,15.2-.09,29.32-4.41,30.29,16.6.8,17.24-.57,35.21-.31,52.66.19,12.47-.08,24.74,0,37.11.11,17.04,2.17,34.52.93,51.39-.75,10.2-6.11,13.52-15.47,15.29-11.78,2.23-23.57,1.62-35.44,1.37-8.54-.18-17.08-.12-25.66-.34-22.77-.61-45.41,3.2-67.9,2.56-4.73-.13-9.52-.77-14.25-.98-8.24-.37-21.17,1.15-27.61-4.42-2.91-2.52-5.91-9.02-6.19-12.84-.88-12.1-.14-25.62.34-37.74-1.16-21.93-.72-43.72-.34-65.68.22-12.63-.94-26.08-.32-38.38.94-18.57,15.44-16.96,30-16.97,17.54,0,35.17-1.49,52.73-1.8ZM5.39,25.86c-.22,1.94.16,4.21,0,6.18,5.32-.49,10.69-.55,16.03-.65,7.3-.14,14.25-.58,21.56-.94,23.42-1.13,46.96-.59,70.42-.97,23.91.75,48.05,1.5,72,1.3,1.18-.01,7.47-.83,7.75.46.14.63-.98,1.01-1.45,1.09-3.92.61-8.74-.05-12.72.53-21.68-.8-43.34-.71-65.01-1.41-33.75-1.1-68.37,1.28-102.07,2.18-2.16.06-4.42.14-6.51-.33-.11,10.11.72,20.22.65,30.3-.12,15.86-1.42,31.67-.64,47.56.34,6.97,1.48,13.91.96,20.95l-.66,8.22c.57,10.13-.54,21.42.32,31.42.3,3.54,3.5,9.61,6.51,11.57,5.99,3.91,20.23,2.95,27.6,3.16,17.98.5,33.21-.36,51.06-1.58,10.79-.73,21.57-.24,32.33,0,7.84.18,15.73-.6,23.5-.34,11.88.39,21.9.98,33.83-1.03,9.32-1.57,12.92-4.57,13.57-14.34.89-13.3-.85-26.38-1.28-39.63-.43-13.21.54-26.45.35-39.67-.12-8.27-.51-16.06-.32-24.39.3-12.79,1.48-27.05.32-39.67-.41-4.42-3.35-9.31-7.69-10.7-6.29-2.02-18.31-.37-25.48-.53-10.47-.24-20.59-.48-31.08-.34-16.32.22-32.49-3.06-48.82-1.24l-19.06.29c-13.12,2.21-27,.13-39.96.95-7.49.48-15.05,3.11-16,11.59Z"/>
  <path class="st0" d="M190.93,100.87c-2.3.65-4.76.17-7.13.32-5.06.33-10.16,1.35-15.21,1.6-9.8.49-20.08.08-29.82,0-12.19-.1-23.83-1.32-35.83-1.61-24.88-.59-49.75,4.4-74.54.31l-17.8.89c-1.72-.16-3.21.14-4.89-.57.99-1.65,4.06-.82,5.88-.93,5.93-.36,12.48-1.25,18.38-.96,3.69.18,7.43,1.03,11.11,1.26,21.4,1.37,43.37-2.32,65.03-1.6,9.65.32,19.17,1.66,28.86,1.61,16.3-.08,32.59.2,48.84-1.27,1.49-.11,5.34-.36,6.59.04.42.13.62.46.53.89Z"/>
</svg>