<?xml version="1.0" encoding="UTF-8"?>
<svg id="Camada_1" xmlns="http://www.w3.org/2000/svg" version="1.1" viewBox="0 0 500 500">
  <!-- Generator: Adobe Illustrator 30.0.0, SVG Export Plug-In . SVG Version: 2.1.1 Build 123)  -->
  <defs>
    <style>
      .st0 {
        fill: #fff;
      }
    </style>
  </defs>
  <path class="st0" d="M244.14,114.07c-33.75,2.24-57.46,29.01-59.29,62.21-.46,8.35.39,17.14.03,25.53-.1,2.39-.68,4.97-.5,7.47-.61,2.1-8.4,3.04-10.78,3.96-14.54,5.65-15.76,26.1-16.25,39.53-.6,16.58-.18,33.19-.78,49.81-.86,23.46-5.06,51.16,22.63,59.45,30.17,9.03,66.81,7,97.9,4.91,23.18-1.56,54.28-3.12,60.54-30.69s6.53-56.45,4.97-83.46c-1.1-19.11.19-35.44-21.49-41.05-3.3-.85-7.19.2-7.6-4.35-1.39-15.21,1.18-27.81-2.57-43.65-8.4-35.45-30.12-52.1-66.81-49.67Z"/>
  <path d="M239.73,10.96c68.95-4.57,109.77,26.73,125.55,93.34,7.04,29.75,2.21,53.44,4.82,82.01.78,8.54,8.09,6.57,14.28,8.17,40.75,10.55,38.32,41.23,40.39,77.14,2.93,50.74,1.99,106.97-9.34,156.83-11.77,51.8-70.21,54.73-113.76,57.66-58.43,3.94-127.28,7.74-183.97-9.23-52.02-15.57-44.13-67.62-42.52-111.71,1.14-31.22.35-62.44,1.47-93.6.91-25.23,3.2-63.65,30.53-74.27,4.48-1.74,19.1-3.5,20.25-7.45-.35-4.7.74-9.55.93-14.04.67-15.77-.93-32.28-.06-47.97,3.45-62.39,47.99-112.7,111.42-116.9ZM246.47,56.63c-25.49,2.15-48.29,16.81-60.13,39.43-13.72,26.22-13.24,57.7-11.6,86.51.15,2.63.32,7.73,3.02,8.93,20.23.69,40.7.4,61.03.42,20.35.02,40.9-.35,61.38-.06,5.21.07,22.17,3.29,24.65-2.23.55-1.23,1.06-5.46,1.17-7.06,4.15-58.4-3.88-132.33-79.53-125.94ZM241.97,290.17c-21.64,2.51-31.06,27.61-18.11,44.64,1.67,2.2,6.62,5.79,7.03,7.94.46,14.17-2.99,28.71-3.72,42.66-.36,6.96-.45,13.73,8.03,15.16,4.33.73,17.78.72,22.21.11,3.61-.49,8.06-3.32,8.64-7.09l-5.16-50.81c.55-3.35,4.27-5.35,6.25-7.96,16.04-21.08.86-47.66-25.18-44.64Z"/>
</svg>