<?xml version="1.0" encoding="UTF-8"?>
<svg id="Camada_1" xmlns="http://www.w3.org/2000/svg" version="1.1" viewBox="0 0 200 200">
  <!-- Generator: Adobe Illustrator 30.0.0, SVG Export Plug-In . SVG Version: 2.1.1 Build 123)  -->
  <defs>
    <style>
      .st0 {
        fill: #fff;
      }

      .st1 {
        stroke: #1d1d1b;
        stroke-miterlimit: 10;
        stroke-width: 2px;
      }
    </style>
  </defs>
  <path class="st0" d="M64.03,86.85c-.78-.08-1.66.06-2.45,0-.25,0-.07-.8-.04-1,.93-7.62,6.15-16.51,12.04-21.34,14.36-11.79,44.8-12.21,56.8,3.14,4.6,5.88,7.85,13.5,7.3,21.1-3.74.23-5.56,1.95-6.22,5.57-.9,4.93-.33,10.11-.44,15.09-.07,2.89-.96,6.1.67,8.72,1.06,1.71,2.93,2.46,4.91,2.38-1.94,8.11-9.04,14.09-16.4,17.33-3.54,1.56-7.52,2.62-11.4,2.29,1.22-2.46-.19-4.8-2.67-5.58-2.64-.83-7.68-.17-8.71,2.86-1.3,3.82,3.45,5.01,6.27,4.91.95-.03,1.94-.36,2.85-.42,1.51-.11,3.17.23,4.77.14,8.31-.47,18.44-6.39,23.35-13.04,1.92-2.6,3.07-5.52,4.01-8.6,9.69-1.62,12.89-12.76,11.22-21.29-1.07-5.44-4.5-9.41-10.16-10.08.52-8.03-2.59-15.64-7.25-21.98-11.32-15.41-38.89-16.46-54.62-7.93-10.47,5.67-17.02,16.25-18.56,27.98-10.02,2.23-11.01,13.83-8.65,22.13,1.42,5,5.59,10.9,11.2,11.29s8.48-1.28,7.82-7.28c-.39-3.51-.96-6.17-.81-9.83.22-5.09,2.82-15.78-4.83-16.55ZM98,81.17c-12.86.91-20.42,10.78-19.03,23.45.42,3.88,1.81,7.54,4.31,10.53l-2.54,7.76c-.15,2.6,2.58,1.5,4.03.9,2.09-.87,4.05-2.23,6.12-3.15,12.47,4.32,26.49-.31,29.4-14.2,1.48-7.09-1.51-17.11-7.41-21.56-3.92-2.95-10.04-4.06-14.87-3.72Z"/>
  <g>
    <path class="st1" d="M30.09,78.19c14.89,1.51,9.83,22.31,9.41,32.22-.31,7.13.82,12.31,1.57,19.14,1.28,11.67-4.32,14.92-15.23,14.17-10.91-.75-19.04-12.25-21.8-21.97-4.58-16.17-2.66-38.74,16.85-43.09,3-22.84,15.75-43.42,36.13-54.46,30.62-16.6,84.3-14.56,106.33,15.44,9.07,12.36,15.13,27.17,14.11,42.79,11.01,1.3,17.7,9.03,19.77,19.62,3.26,16.61-2.98,38.29-21.84,41.44-1.82,6-4.05,11.68-7.8,16.74-9.56,12.94-29.27,24.47-45.45,25.38-3.11.17-6.35-.48-9.29-.27-1.78.12-3.69.75-5.55.82-5.5.2-14.74-2.11-12.21-9.55,2-5.89,11.82-7.19,16.95-5.56,4.81,1.52,7.56,6.07,5.19,10.86,7.57.63,15.3-1.42,22.2-4.46,14.32-6.31,28.14-17.95,31.92-33.73-3.85.15-7.49-1.32-9.56-4.64-3.17-5.11-1.44-11.35-1.31-16.97.23-9.7-.89-19.78.86-29.38,1.28-7.04,4.82-10.38,12.11-10.83,1.08-14.8-5.25-29.63-14.2-41.08-23.37-29.89-82.63-29.07-110.58-6.12-11.46,9.41-21.64,26.72-23.44,41.55-.05.38-.4,1.95.09,1.95,1.54.11,3.26-.15,4.77,0ZM25.38,81.7c-1.36.25-1.54,1.51-2.96,1.26-.66-.12-.76-.61-1.84-.52-5.21.46-10.42,6.49-12.41,10.95-7.35,16.45.5,48.94,22.99,46.86,9.7-.89,5.87-11.85,5.21-18.2-.22-2.1-.55-4.8-.57-6.85-.07-6.92,3.22-25.38-.52-30.52-2.04-2.79-6.64-3.58-9.88-2.99ZM171.28,85.68c-5.73.89-6.36,6.74-6.83,11.48-.86,8.67-.27,17.34-.52,26.01-.19,6.33-2.76,16.33,6.49,17.09,22.24,1.85,30.08-32.09,19.44-47.03-3.91-5.5-11.93-8.58-18.59-7.55ZM104.96,174.02c-7.23.91-9.81,7.52-1.1,8.39,2.89.29,10.73.17,10.72-4.08,0-4.27-6.56-4.69-9.62-4.31Z"/>
    <g>
      <path class="st1" d="M96.22,67.13c9.39-.66,21.32,1.49,28.95,7.24,11.48,8.66,17.32,28.18,14.43,41.97-5.66,27.03-32.97,36.06-57.23,27.64-4.02,1.81-7.84,4.45-11.91,6.14-2.82,1.17-8.14,3.32-7.85-1.75l4.95-15.11c-4.88-5.82-7.56-12.94-8.39-20.49-2.7-24.66,12.02-43.88,37.05-45.65ZM66.83,147.42c.93.82,12.79-6.46,14.74-7.15,1.55-.24,3.11.78,4.63,1.18,10.45,2.77,20.62,3.01,30.68-1.41,21.86-9.6,25.09-37.82,12.4-56.26s-50.78-16.79-61.96,3.78c-6.9,12.69-6.67,30.82,2.18,42.48.77,1.01,2.01,1.46,2.03,2.97l-4.69,14.41Z"/>
      <path class="st1" d="M97.07,99.41c.42.29,2.91-2.61,3.44-3.05,9.72-8.19,20.19-3.14,15.06,10.02-2.14,5.48-6.99,10.55-11.48,14.25-1.21,1-4.99,4.03-6.36,4.01-1.49-.01-1.58-.94-2.42-1.58-5.57-4.22-12.75-9.42-14.82-16.49-3.59-12.24,10.55-17.65,16.58-7.16ZM95.82,104.64c-.38-.38-.58-1.56-.92-2.13-1.78-3.03-4.62-6.49-8.54-4.66-3.71,1.73-2.98,6.67-1.53,9.7,1.83,3.83,8.91,10.36,12.54,12.67.24.15.46.41.78.27,5.68-4.12,12.57-9.93,14.66-16.9,2.66-8.86-3.88-9.44-9.5-4.72-.79.66-2.12,2-2.77,2.8-1.05,1.29-2.54,5.17-4.71,2.97Z"/>
    </g>
  </g>
</svg>