<?xml version="1.0" encoding="UTF-8"?>
<svg id="Camada_1" xmlns="http://www.w3.org/2000/svg" version="1.1" viewBox="0 0 200 200">
  <!-- Generator: Adobe Illustrator 30.0.0, SVG Export Plug-In . SVG Version: 2.1.1 Build 123)  -->
  <defs>
    <style>
      .st0 {
        stroke: #000;
        stroke-miterlimit: 10;
        stroke-width: 5px;
      }
    </style>
  </defs>
  <path class="st0" d="M142.5,4.32c4.83-.19,18.66-.79,22.48,1.32,1.47.81,2.58,2.64,2.92,4.27,1.26,5.96.88,13.35,1.41,19.5,1.49,17.35,3.42,32.45,3.07,50.03-.61,30.11-.9,60.31-1.37,90.49-.09,5.56.54,11.1-.37,16.77-.86,5.36-3.94,6.09-8.8,6.97-15.49,2.79-31.83.23-47.56.77-8.3.29-16.67,1.04-24.99,1.4-8.32.36-16.39-1.04-24.71-.72-9.25.36-17.44.6-26.71.02-.96-.06-2.78-.26-3.7-.44-7.85-1.49-5.43-7.38-5.73-13.47-2.53-50.9,1.15-101.38,2.74-152.16.13-4.05-.86-14.48,1.07-17.44,2.52-3.84,11.74-4.07,15.9-4.01,31.47.46,62.88-2.08,94.35-3.31ZM36.4,14.25c-.82.95-.34,11.94-.41,14.16-1.61,50.67-5.25,100.99-2.76,151.83.15,3.02-.24,6.08.16,9.09.31.48,3.39.95,4.13,1.01,12.5,1.03,24.47-.49,36.69-.01,14.38.56,27.2-.32,41.44-.68,14.39-.36,28.13,1.35,42.51-.33,1.83-.21,7.26-.67,7.7-2.59.89-3.86.66-10.29.72-14.39.4-30.91.58-61.78,1.37-92.52.48-18.48-2.28-37.18-3.78-55.55-.19-2.28-.23-13.13-1.2-14.22-1.23-.38-2.87-.91-4.12-1.02-9.09-.83-18.36.65-27.4,1.04-19.18.82-38.39,1.36-57.61,2.03-7.55.26-14.99.97-22.62.71-1.93-.06-4.21-.76-6.16-.72-1.29.03-8,1.4-8.66,2.16Z"/>
  <path class="st0" d="M148.29,53.35c1.39,1.52.59,3.76-1.42,4.02-6.66.88-14.79-1.08-21.63-.37l-22.94,1.74c-4.41-.22-9.02.25-13.4,0-1.04-.06-3.82-.27-4.63-.51-1.65-.49-2.32-2.6-1.17-3.95,1.26-1.47,4.53-.37,6.14-.34,19.16.39,38.07-2.9,57.27-1.4.57.06,1.38.39,1.76.81Z"/>
  <path class="st0" d="M115.08,144.86l6.08-.12,7.51.71,17.42.4c1.81.41,2.27,2.91.76,4.04-1.42,1.07-7.52.74-9.62.69-7.16-.16-14.39-1.18-21.59-1.06-8.7.15-18.89,1.95-27.42,1.4-1.89-.12-5.83-.22-5.98-2.61-.25-3.95,7.32-2.17,9.78-2.19,7.49-.07,15.48-1.22,23.05-1.28Z"/>
  <path class="st0" d="M83.04,99.28c1.51-1.39,5.9-.18,7.95-.11,16.73.57,34.64-2.6,51.4-3.1,2.57-.08,5.56-.51,6.33,2.58-.75,3.35-5.04,2.02-7.69,2.23-12.14.96-24.5,2.27-36.66,2.75-3.79.15-17.71.56-20.5-.44-1.69-.6-2.18-2.69-.83-3.92Z"/>
  <path class="st0" d="M58.17,45.79c8.34-1.21,13.76,4.82,10.87,12.93-1.87,5.25-6.49,6.87-11.75,5.6-8.91-2.14-6.99-17.38.88-18.53ZM60.9,50.56c-.54.16-.97.99-1.61,1.18-1.57.45-1.83-1.08-2.85,1.91-1.19,3.49-.28,6.16,3.71,6.45s5.65-3.61,4.89-6.97c-.33-1.44-2.69-3.01-4.13-2.58Z"/>
  <path class="st0" d="M58.52,138.34c7.3-.91,11.97,3.59,10.95,10.95-1.75,12.75-21.41,9.99-17.7-3.99.55-2.08,1.9-5.04,3.83-6.11.88-.49,1.92-.74,2.91-.86ZM60.9,143.09c-.46.13-.91.9-1.69,1.11-.74.2-1.59-.28-2,0-.44.31-1.31,3.53-1.33,4.2-.12,3.47,2.91,4.78,5.96,4.21,2.52-.47,3.69-4.77,3.2-6.94-.32-1.43-2.76-2.97-4.13-2.59Z"/>
  <path class="st0" d="M58.85,91.72c2.95-.35,7.74,1.14,9.49,3.7,1.62,2.38,1.5,6.23.7,8.88-3.16,10.41-19.35,8.03-17.55-4.19.15-1,1.51-4.66,2.02-5.52,1.01-1.71,3.47-2.65,5.35-2.87ZM60.91,96.5c-.58.15-1.28,1.01-1.96,1.15-1.73.35-1.84-.91-2.66,2.13-1.12,4.17.78,6.79,5.23,6.25,3.16-.38,4.57-5.77,2.91-8.07-.66-.91-2.39-1.75-3.52-1.47Z"/>
</svg>