<?xml version="1.0" encoding="UTF-8"?>
<svg id="Camada_1" xmlns="http://www.w3.org/2000/svg" version="1.1" viewBox="0 0 500 500">
  <!-- Generator: Adobe Illustrator 30.0.0, SVG Export Plug-In . SVG Version: 2.1.1 Build 123)  -->
  <defs>
    <style>
      .st0 {
        fill: #fff;
      }
    </style>
  </defs>
  <path d="M183.9,69.37c-7.03,6.78-6.54,36.89-5.68,46.99,1.23,14.47,7.39,17.76,21.42,18.82,6.76.51,12.31-1.33,18.17-1.4,28.64-.34,67.83,3.39,94.85.09,5.75-.7,12.77-4.55,14.28-10.38,1.74-6.7,1.44-35.72.68-43.59-1.57-16.16-14.27-14.14-26.76-17.37.76-29.74-10.42-49.28-41.62-51.84-21.71-1.78-42.38,9.78-46.91,31.94-.91,4.45-.24,15.01-2.24,18.52-2.16,3.79-19.83,2.11-26.18,8.22ZM379.53,434.95c-1.32-4.12-2.65-8.25-3.97-12.37-1.82,4.09-5.32,10.38-11.92,14.89-12.91,8.82-29.31,3.7-35.5,3.98-51.81,2.29-110.47,7.28-162.27,5.31-8.23-.31-24.74-1-32.08-2.97-11.29-3.02-17.68-12.57-18.99-23.85-2.5-21.52.93-42.38,1.21-63.41.65-48.01.58-96.21,1.3-144.09.34-22.49-3.88-75.62,3.59-93.77,8.97-21.8,32.79-9.81,43.03-16.68,4.61-3.1,5.52-15.26,1.41-19.47-4.38-4.5-32.37-3.87-39.7-3.24-33.1,2.85-34.76,29.55-36.94,56.53-4.79,59.33-1.07,120.62-3.92,180.41-1.16,24.31-.53,44.5.07,68.76.88,35.49-10.01,79.51,35.8,87.52,53.59,9.38,129.01.57,184.12-1.2,24.81-.8,68.39,5.03,88.1-10.55,20.01-15.82,15.22-62.61,16.39-86.16,6-48.97,3.22-97.38,1.3-146.58-1.24-31.66,5.84-102.41-5.73-127.98-9.16-20.25-37.36-23.06-57.2-20.73-12.3,1.45-11.68,23.56.33,25.68,13.02,2.3,28.91-.22,33.49,17.14,5.12,19.42,2.63,74.2,1.96,96.81-1.41,47.53-4.02,95.3-5.3,142.68-.55,20.49.51,40.65-2.56,60.97,2.37,3.31,10.84-2.79,11.69-1.85-4.14-2.86-9.79-1.44-12.03,2.59-2.26,4.08-.4,9.69,4.31,11.64ZM218.27,206.83c-13.84.27-34.26-.56-47.18.97-15.29,1.8-14.24,20.93,2.74,23.28,13.52,1.87,36.14-2.67,50.46-2.53,31.13-2.6,68.35,3.65,98.74.08,13.79-1.62,13.91-18.8,1.19-22.02l-85.54,1.28c-6.94.1-14.09-1.18-20.41-1.06ZM276.65,271.82c-21.09.34-42.91,2.03-63.94,2.27-12.19.14-29.39-2.72-40.18-1.24-9.85,1.35-16.03,8.5-10.4,17.96,6.6,11.07,26.96,4.32,37.46,3.96,32.4-1.12,72.84,3.65,103.77-.11,7.61-.93,13.55-4.81,12.45-13.36-1.75-13.63-29.4-9.63-39.18-9.47ZM245.5,338.02c-21.21.4-53.37-1.62-72.96,1.03-17.38,2.35-15.97,21.35-.14,23.28,7.39.9,14.11-1.28,20.75-1.38,18.96-.3,38.69.97,57.17.17,5.47-.24,15.76-.72,20.69-1.49,9.58-1.49,11.56-14.03,4-19.42-6.26-4.46-21.65-2.34-29.5-2.19ZM384.81,428.82"/>
  <polygon class="st0" points="10.89 489.49 10.51 489.49 10.51 10.51 489.49 10.51 489.49 10.89 10.89 10.89 10.89 489.49"/>
</svg>