<?xml version="1.0" encoding="UTF-8"?>
<svg id="Camada_1" xmlns="http://www.w3.org/2000/svg" version="1.1" viewBox="0 0 500 500">
  <!-- Generator: Adobe Illustrator 30.0.0, SVG Export Plug-In . SVG Version: 2.1.1 Build 123)  -->
  <defs>
    <style>
      .st0 {
        fill: #fff;
      }
    </style>
  </defs>
  <path class="st0" d="M195.96,75.98c-1.33-3.47,1.8-2.44-4.86-5.36-32.58-14.29-83.82-3.15-103.02,28.13-32.97,53.72,7.9,117.19,69.18,116.94,59.03-.24,94.96-84.03,57.96-128.24-3.81-4.55-9.53-6.33-13.17-11.21l-1.93,2.89c-.59-.42-4.06-2.9-4.16-3.16ZM393.81,142.62c0-41.89-33.96-75.84-75.84-75.84s-75.84,33.96-75.84,75.84,33.96,75.84,75.84,75.84,75.84-33.96,75.84-75.84ZM300.05,355.09c20.11-10.96,40.51-24.83,56.07-41.92,16.53-18.14,35.19-54.2,66.11-36.89,32.41,18.14,11.73,62.18-3.42,84.96-18.31,27.53-42.72,50.56-72.93,64.53,3.59,4.53,11.63,5.91,17.15,6.24,22.18,1.34,61.15-2.39,83.3-7.16,12.76-2.75,20.42-5.9,28.24-16.61,11.3-15.49,9.29-41.02,7.78-59.48-3.76-45.96-27.99-129.85-82.63-136.74-5.6-.71-19.85-.51-24.83,1.73-1.23.55-1.15,2.42-2.34,2.79-.9.28-3.82-.55-6.61.15-15.95,3.99-28.49,12.43-46.94,12.67-17.68.24-33.13-9.86-50.38-3.66-20.56,7.39-24.61,32.23-37.31,47.51-25.12,30.22-70.62,28.94-106.02,23.12-10.42-1.71-22.95-6.65-33.31-5.47-15.99,1.82-22.1,16.98-18.85,31.3,9.79,43.07,96.38,45.45,130.56,53.71,4.5,1.09,15.25,3.1,16.73,7.65,2.03,6.26,2.14,13.72,4.79,20.56,5.46,14.1,13.69,22.92,28.78,25.82,38,7.31,90.44-10.12,119.63-34.86,22.58-19.14,57.32-62.8,53.08-93.97-1.87-13.73-17.02-19.82-29.16-14.71-13.2,5.55-29.89,33.22-41.4,44.4-10.49,10.19-31.85,24.49-46.3,26.82-3.08.5-9.79,1.99-9.8-2.47ZM100.96,216.91c-58.14,1.28-78.71,69.46-82.67,117.22-1.4,16.94-4.16,55.39,2.05,70.08,5.8,13.72,22.15,18.86,35.58,21.94,34.5,7.93,82.54,11.5,117.92,9.9,7.49-.34,25.31-1.56,31.55-4.53,11.65-5.54,9-26.69,5.69-36.69-1.82-5.5-11.52-7.15-17.05-8.3-40.25-8.38-117.06-11.77-132.13-58.96-4.33-13.55-3.22-27.01,6.6-37.82,17.08-18.81,40.79-8.2,61.72-5.15,40.76,5.94,86.36,5.33,103.72-39.04,3.88-9.93-1.73-15.53-10.24-20.32-21.96-12.36-34.82-.56-55.75,1.12-26.18,2.1-44.42-9.95-66.96-9.46Z"/>
  <g>
    <g>
      <path d="M208.58,81.97s4.3,2.67,6.65,5.48c36.99,44.21,1.07,128-57.96,128.24-61.28.25-102.15-63.22-69.18-116.94,21.22-34.58,71.79-43.04,103.02-28.13,4.2,2.01,7.45,4.15,9.59,5.7,1.93,1.28,4.68,3.18,7.88,5.65Z"/>
      <circle cx="317.96" cy="142.62" r="75.84"/>
    </g>
    <g>
      <path d="M300.05,355.09c.01,4.47,6.72,2.97,9.8,2.47,14.45-2.33,35.81-16.63,46.3-26.82,11.51-11.19,28.2-38.85,41.4-44.4,12.14-5.11,27.3.98,29.16,14.71,4.24,31.17-30.49,74.84-53.08,93.97-29.19,24.74-81.63,42.17-119.63,34.86-15.08-2.9-23.32-11.72-28.78-25.82-2.65-6.84-2.76-14.3-4.79-20.56-1.48-4.54-12.23-6.56-16.73-7.65-34.18-8.26-120.77-10.64-130.56-53.71-3.26-14.32,2.86-29.49,18.85-31.3,10.36-1.18,22.9,3.76,33.31,5.47,35.39,5.82,80.9,7.1,106.02-23.12,12.7-15.28,16.75-40.13,37.31-47.51,17.24-6.19,32.69,3.9,50.38,3.66,11.02-.15,31.99-6.78,46.94-12.67,1.45-.57,4.54-1.82,8.96-2.94,0,0,11.99-3.35,24.83-1.73,54.64,6.9,78.87,90.78,82.63,136.74,1.51,18.45,3.52,43.98-7.78,59.48-7.82,10.72-15.47,13.86-28.24,16.61-22.15,4.77-61.13,8.5-83.3,7.16-5.52-.33-13.56-1.71-17.15-6.24,30.2-13.96,54.62-37,72.93-64.53,15.15-22.78,35.83-66.82,3.42-84.96-30.93-17.31-49.59,18.75-66.11,36.89-15.57,17.09-35.96,30.97-56.07,41.92Z"/>
      <path d="M100.96,216.91c22.55-.5,40.78,11.56,66.96,9.46,20.93-1.68,33.79-13.48,55.75-1.12,8.51,4.79,14.13,10.39,10.24,20.32-17.36,44.36-62.96,44.97-103.72,39.04-20.93-3.05-44.64-13.67-61.72,5.15-9.81,10.81-10.92,24.27-6.6,37.82,15.07,47.19,91.89,50.58,132.13,58.96,5.53,1.15,15.23,2.8,17.05,8.3,3.32,10.01,5.97,31.15-5.69,36.69-6.24,2.97-24.05,4.19-31.55,4.53-35.38,1.6-83.42-1.97-117.92-9.9-13.43-3.09-29.78-8.22-35.58-21.94-6.21-14.69-3.45-53.14-2.05-70.08,3.96-47.76,24.52-115.94,82.67-117.22Z"/>
    </g>
  </g>
</svg>