<?xml version="1.0" encoding="UTF-8"?>
<svg id="Camada_1" xmlns="http://www.w3.org/2000/svg" version="1.1" viewBox="0 0 200 200">
  <!-- Generator: Adobe Illustrator 30.0.0, SVG Export Plug-In . SVG Version: 2.1.1 Build 123)  -->
  <defs>
    <style>
      .st0 {
        fill: #272727;
      }
    </style>
  </defs>
  <path class="st0" d="M158.92,94.55c-.14-.16.67-1.16.78-1.42,1.22-2.78-.25-5.66-2.5-7.32-6.6-4.86-17.67-1.72-24.45,1.46-5.75,2.7-10.72,6.83-16.47,9.45-3.12,1.42-6.64,2.66-10.07,2.97l1.9,1.02c2.78,1.64,5.59,5.14,4.76,8.55-.3,1.24-1.27,2.65-2.67,2.67.22-.9.74-1.52.84-2.51.78-7.51-10.26-9.94-15.88-9.6-14.72.89-26.69,12.61-40.67,16.46-6.73,1.85-18.56,2.82-24.74-.9-.65-.39-1.71-.98-.82-1.71,1.35.25,2.67.68,4.02.94,11.5,2.18,21.78-.97,31.9-6.06,11.24-5.65,21.6-12.19,34.88-10.85,1.15.12,3.55.91,4.4.85,1.16-.08,4.49-1.24,5.72-1.7,7.2-2.66,13.05-7.94,19.92-11.28,8.03-3.91,24.08-7.77,30.58.39,2.21,2.78,2.81,7.61-1.42,8.61Z"/>
  <path class="st0" d="M150.94,94.27c.56.14,1.95-.57,2.11-1.1.59-1.99-2.15-1.76-3.35-1.21-2.11.96-3.43,3.49-3,5.76.67,3.56,4.61,5.74,7.91,6.34,8.96,1.61,14.23-5,22.26-6.73,4.69-1.01,10.88-.61,14.6,2.78.35.32.8.78.79,1.28-.74-.02-1.34-.52-2-.78-4.07-1.63-8.42-2.04-12.68-.86-8.72,2.42-14.44,9.82-24.5,6.84-3.88-1.15-7.98-4.23-8.39-8.56-.06-.6.07-1.06.06-1.62-3.2,5.12,1.38,10.16,5.86,12.37,5.85,2.88,12.56,2.37,18.14-.83-.19,1.07-1.22,1.83-2.09,2.39-5.51,3.56-13.01,2.73-18.41-.62-4.39-2.72-8.3-7.88-5.64-13.17.81-1.61,2.09-2.94,3.49-4.06.02-.11-.13-.09-.21-.07-2.29.39-5.92,4.02-7.48,5.77-3.84,4.32-7.17,9.32-11.92,12.72-5.69,4.07-14.54,7.29-21.57,5.8-.38-.08-1.53-.4-1.7-.72-.16-.29.25-.19.36-.21,1.44-.26,2.91-.12,4.4-.31,6.87-.88,13.77-4.12,18.9-8.74,6.28-5.67,12.39-15.89,21.19-17.41,2.07-.36,5.07-.17,6.59,1.46s.22,3.73-1.82,4.02c-.54.08-1.79.18-1.89-.53Z"/>
  <path class="st0" d="M99.37,112.93c1.88.17,4.74-2.31,2.29-3.64-1.3-.7-3.03-.33-4.31.26-4.32,1.99-4.97,7.22-.72,9.76,3.99,2.38,9.29,1.68,13.55.35.92-.29,1.79-.83,2.74-.89.47.47-1.67,1.94-2.04,2.16-3.5,2.07-8.9,2.53-12.74,1.3-3.62-1.16-7.14-4.28-6.09-8.44l.43-1.42c-4.45,4.5-1.38,10,4.03,11.64,2.57.78,5.1.72,7.73.32-1.25,1.56-4.03,1.83-5.91,1.71-8.93-.59-14.13-9.63-6.1-15.64l2.68-1.73c-3,.52-5.88,2.14-8.26,3.99-6.59,5.14-10.05,11.38-18.52,14.39-4.97,1.77-11.73,2.38-16.31-.65-.04-.34.08-.19.29-.15,5.1.98,11.18.28,15.9-1.89,9-4.13,14.5-13.28,23.84-16.9,3.76-1.46,9.63-2.45,12.39,1.28,1.63,2.2-.47,4.78-2.91,4.92-.63.04-1.82.08-1.93-.72Z"/>
  <path class="st0" d="M111.69,93.27s.15-.19.28-.14c.22.37-.79.74-1.11.88-8.69,3.8-18.04-6.78-11.43-14.56,1.78-2.09,4.59-4.03,7.34-4.41.03-.25-.32-.13-.5-.14-2.53-.11-5.76,1.19-7.9,2.5-5.74,3.53-8.67,10.01-12.98,14.94-3.04,3.47-8,7.22-12.64,8.01-.59.1-1.16.14-1.74.04.56-.61,1.55-.83,2.26-1.22,8.85-4.87,11.32-11.12,17.54-18.21,4.34-4.94,10.43-8.72,17.29-8.03,2.49.25,6.08,2.16,5.93,5.05-.13,2.51-3.21,3.73-5.13,2.27l1.76-.52c1.98-.62,1.77-3.12-.27-3.39-4.79-.62-9.16,4.68-6.5,9.2,2.54,4.31,8.9,4.73,13.13,2.96.51-.21,1.61-.98,1.94-1.05.79-.18,0,1.19-.24,1.48-1.15,1.39-3.54,2.23-5.27,2.57-6.42,1.27-14.28-3.45-12.12-10.69l.79-1.63c-2.43,2.47-3.63,5.46-2.14,8.83,1.13,2.54,5.05,5.27,7.83,5.27,1.19,0,2.72.12,3.85,0Z"/>
  <path class="st0" d="M72.16,130.73c.22-.03.42-.13.64-.15,1.04-.07,3.38.76,4.6.96,5.39.9,11.51.53,16.82-.77,18.3-4.49,30.63-22.04,51.35-18.09,2.89.55,8.33,2.43,9.69,5.27.1.2.42,1.24.04,1.24-.1,0-1.22-1-1.51-1.2-8.75-5.85-19.78-3.73-28.63.7-11.39,5.7-20.84,14.07-34.13,15.73-4.88.61-14.15.48-18.14-2.77-.15-.13-.86-.72-.72-.91Z"/>
  <path class="st0" d="M118.41,70.39c1.69,1.66,3.38,4.39,2.72,6.83-.27.99-1.1,2.11-2.24,1.96-.01-.53.35-1,.42-1.51.43-3.23-2.05-6.09-4.74-7.49-6.86-3.59-16.98-1.18-23.7,1.85-10.16,4.59-17.95,13.24-28.26,17.76-4.95,2.17-11.32,3.88-16.75,3.5-.34-.02-2.68-.47-2.77-.58-.25-.3.52-.38.66-.41,2.22-.43,4.68-.47,6.95-.89,6.7-1.22,12.5-3.97,18.17-7.61,7.29-4.68,13.33-10.54,21.43-14.04,8.04-3.47,21.1-6.24,28.12.64Z"/>
  <path class="st0" d="M103.36,105.38c-1.27-.1-2.49-.61-3.77-.71-13.48-1.06-23.78,12.14-35.65,16.77-5.72,2.23-15.34,3.72-21.06,1.04-.53-.25-1.66-1.04-.72-1.43l4.29.57c6.62.28,12.99-1.07,18.88-4.06,9.96-5.05,20.31-15.52,32.25-14.59,1.49.12,4.57.84,5.64,1.91.17.17.17.25.15.49Z"/>
  <path class="st0" d="M70.73,103.1c-4.93,1.27-9.39-1.79-13.96-3.06-6.66-1.85-12.59-1.35-18.91,1.33-5.63,2.39-12,5.94-18.35,5.44-.99-.08-2.41-.32-3.2-.93,2.13-.38,4.31-.56,6.41-1.14,5.44-1.48,9.29-4.15,14.21-6.44,5.84-2.72,12.51-3.46,18.73-1.57,3.9,1.19,7.32,3.56,11.15,4.95,1.01.37,2.06.59,3.06.93.27.09.74.22.86.49Z"/>
  <path class="st0" d="M98.94,135.43c-.19-.24.04-.24.2-.3,1.14-.41,2.82-.56,4.08-.91,12.07-3.38,19.93-13.87,32.45-15.98,4.22-.71,9.3-.57,12.85,2.02-.16.22-.21.21-.46.18-.95-.09-2.13-.55-3.17-.68-5.84-.72-11.45,1.02-16.61,3.63-8.52,4.3-17.71,13.47-27.99,12.47-.24-.02-1.25-.3-1.35-.43Z"/>
  <path class="st0" d="M50.64,88.14c-.47.79-1.39.23-2.08.16-13.74-1.57-21.69,9.54-34.61,8.53-.64-.05-3.98-.6-4.03-1.35-.06-1.05,2.54-.74,3.17-.78,5.41-.4,8.81-1.5,13.65-3.73,6.2-2.86,11.17-5.13,18.25-4.51,1.94.17,3.89.89,5.64,1.69Z"/>
  <path class="st0" d="M94.38,73.9c.26.21-3.02,2.82-3.28,3.06-7.51,6.94-11.4,17.78-22.48,20.54-1.31.33-3.23.8-4.45.11,0-.23,1.74-.66,2.07-.78,3.43-1.27,6.61-3.19,9.33-5.63,5.53-4.96,9.49-12.81,16-16.34.85-.46,1.83-.98,2.8-.97Z"/>
  <path class="st0" d="M36.54,94.98c.27.38-.87,1.27-1.15,1.48-6.41,4.79-18.32,8.92-26.02,5.52-.46-.2-2.01-.95-1.55-1.6.12-.14.27-.13.44-.14.86-.05,2.32.38,3.28.44,5.3.32,10.31-.58,15.25-2.42,2.26-.84,4.47-2.06,6.73-2.81.5-.16,2.72-.89,3.02-.46Z"/>
  <path class="st0" d="M148.09,87.43c-.04.23-.28.26-.46.32-1.57.56-3.18.82-4.77,1.5-9.24,3.96-14.62,14.82-24.54,16.77-1.08.21-1.99.3-3-.22-.04-.22.05-.31.24-.39.57-.23,1.45-.36,2.11-.6,9.53-3.46,14.27-13.04,23.11-16.49,2.26-.88,4.91-1.48,7.3-.89Z"/>
  <path class="st0" d="M29.99,86.43c.27-.91,1.17-1.5,1.95-1.97,4.08-2.44,10.13-3.02,14.75-2.27,4,.66,7.07,2.35,10.76,3.77.67.26,1.48.36,2.03.82,0,.21-1.26.46-1.51.48-3.41.34-5.84-1.31-8.97-2.11-4.72-1.21-9.21-.77-13.91.17-1.7.34-3.38.89-5.1,1.1Z"/>
  <path class="st0" d="M181.57,94.7c.16.19.01.27-.21.28-.52.03-1.05-.04-1.57,0-1.84.13-3.67.44-5.45.96-5.44,1.59-9.34,5.49-15.21,6.16-3.06.35-7.59-.2-9.69-2.7-.19-.22-.6-.98-.14-1,.07,0,.89.56,1.17.68,4.08,1.75,8.12,1.45,12.18-.14,2.12-.83,4.06-2.06,6.13-2.98,3.99-1.77,8.54-2.77,12.78-1.25Z"/>
  <path class="st0" d="M49.93,106.8c-.61.11-1.2-.12-1.77-.15-2.78-.12-5.42.34-8.09,1.04-5.76,1.51-12,4.68-17.92,2.1-.03-.25.32-.13.5-.14,2.82-.1,5.17-.22,7.94-.89,5.56-1.34,13.55-5.92,19.02-2.41.19.12.39.17.33.45Z"/>
  <path class="st0" d="M65.18,105.66c-.02.48-.54.72-.92.86-3.23,1.23-9.55-2.09-12.93-3.03s-6.31-.99-9.88-.55c-.17.02-.52.09-.63-.06.13-.18.12-.27.32-.4,2.22-1.45,5.86-1.85,8.44-1.52,4.94.61,8.91,3.81,13.69,4.54.28.04,1.82.08,1.91.16Z"/>
  <path class="st0" d="M142.39,79.03c.19.23-.01.25-.21.28-4.98.6-9.66,1.54-14.21,3.75l-5.67,2.81.92-1.43c3.14-2.79,6.94-4.84,11.07-5.74,2.61-.56,5.58-.68,8.09.33Z"/>
  <path class="st0" d="M77,74.33c.15.14-.38.6-.5.71-1.46,1.31-3.66,2.93-5.27,4.13-3.2,2.39-7.03,4.87-11.18,4.7-.05-.32,0-.23.18-.32,1.9-.94,3.53-1.56,5.34-2.78,3.55-2.41,6.78-6.6,11.44-6.44Z"/>
  <path class="st0" d="M131,91.99c-1.35,2.36-3.74,4.15-5.99,5.61-1.99,1.29-4.25,2.59-6.5,3.32-1.46.48-2.92.85-4.45.46v-.42c3.51-.89,6.74-2.59,9.73-4.58,1.64-1.09,3.23-2.53,4.9-3.51.37-.22,2-1.14,2.32-.88Z"/>
  <path class="st0" d="M86.17,123.99c2.25,2.25,4.96,2.77,7.96,3.22.18.03.76.03.68.32-1.67,1.03-4.75.79-6.55.14-1.96-.7-4.86-3.34-4.86-5.55,0-.27.14-1.15.51-1.07s1.78,2.46,2.26,2.94Z"/>
  <path class="st0" d="M59.76,93.98s-.04-.05-.05-.09c-.01-.2.5-.37.61-.41,1.6-.48,3.2-.65,4.84-1.28,2.56-.98,4.46-2.7,6.79-3.9,1.12-.58,1.67-.64,1.85-.43.31.38-1.11,1.91-1.3,2.12,0,0-3.49,3.78-12.42,4.09-.06,0-.23,0-.32-.1Z"/>
  <path class="st0" d="M98.09,64.36c.05.25-.06.29-.25.39-.64.38-2.08.65-2.89.96-2.78,1.05-5.55,2.51-8.33,3.49-.64.23-1.41.5-2.07.56l2.52-2.25c3.15-2.12,7.12-4.23,11.02-3.16Z"/>
  <path class="st0" d="M184.71,103.52c-1.48.24-2.99.21-4.47.45-3.21.5-6.15,1.92-9.06,3.26.17-1.02,1.06-1.76,1.87-2.34,2.91-2.06,7.62-3.2,11.03-1.94.28.1.68.19.64.57Z"/>
  <path class="st0" d="M36.54,111.07c1.04.05,2.02-.03,3.04-.16,2.57-.34,6.76-1.91,9.1-1.51.17.03.96.31.96.47-.16.2-.33.33-.57.43-2.92,1.25-7.45,2.09-10.58,1.6-.16-.02-2.45-.4-1.96-.81Z"/>
  <path class="st0" d="M97.94,95.41c.31.24-.53.42-.65.42-1.73,0-3.94-1.17-4.96-2.56-.56-.77-1.5-2.99-.59-3.7s1.27,1.16,1.62,1.81c.91,1.69,2.83,3.3,4.58,4.04Z"/>
  <path class="st0" d="M139.16,107.75c.71.71,2.12,1.64,3.05,2.01.29.12,1.56.4,1.6.47.27.41-.33.54-.63.57-2.21.2-4.93-.75-6.12-2.72-.49-.81-.66-1.47-.36-2.4,1.25-.14,1.72,1.34,2.46,2.08Z"/>
  <path class="st0" d="M83.98,128.73l-.88.47c-1.95.55-5.12.68-6.86-.49-.4-.27-1.34-1.28-.57-1.52,1.13-.37,3.4.76,4.61,1.05s2.43.36,3.71.5Z"/>
  <path class="st0" d="M81.42,80.6c.16.17-.52,1.08-.65,1.27-1.01,1.41-3.74,4.48-5.51,4.61-.12,0-.35.14-.39-.12-.1-.55,2.47-3.1,2.99-3.56.39-.34,3.23-2.54,3.56-2.2Z"/>
  <path class="st0" d="M54.63,109.08c.46.39-1,.78-1.25.82-.52.08-1.47.18-1.89-.18l1.25-.46,1.89-.18Z"/>
</svg>