<?xml version="1.0" encoding="UTF-8"?>
<svg id="Camada_1" xmlns="http://www.w3.org/2000/svg" version="1.1" viewBox="0 0 200 200">
  <!-- Generator: Adobe Illustrator 30.0.0, SVG Export Plug-In . SVG Version: 2.1.1 Build 123)  -->
  <defs>
    <style>
      .st0, .st1 {
        display: none;
      }

      .st1, .st2 {
        fill: #272727;
      }
    </style>
  </defs>
  <path class="st2" d="M53.01,38.58c.11-1.42.56-3.6,1.15-4.97,1.75-4.07,6.56-5.81,10.58-3.95s5.39,8.64,5.35,12.62l55.54.5c.39-1.02.14-2.11.29-3.15.41-2.94,1.58-6.86,3.93-8.81,2.91-2.42,8.04-2.31,10.57.64,1.76,2.05,2.82,5.74,3.07,8.4.07.74-.31,2.7.4,2.91,1.09.32,4.41-.03,5.84.02,3.54.12,7.19.41,10.71.76,8.19.8,15.65,1.72,16.43,11.6.86,10.96-.87,22.89.25,33.89.27,20.23.37,40.45,1.02,60.65.12,3.58-.08,9.2-1.6,12.44-2.99,6.37-12.43,6.57-18.42,7.06-20.77,1.69-41.74,1.36-62.7,1.52-15.69.12-31.86.78-47.64,0-5.45-.27-16.13-.36-19.87-4.85-3.94-4.74-3.97-14.82-4.21-20.76-1.08-26.33-.85-52.88-1.53-79.26-.11-4.37-.76-9.14,0-13.48,1.08-6.14,5.58-7.39,11.09-8.28,5.81-.93,11.73-1.09,17.56-1.56.71-.06,1.46.05,2.17,0,.07-1.29-.1-2.67,0-3.95ZM57.85,38.84c-.12,1.17.09,2.5,0,3.7l7.65-.38c-.63-2.78-.85-8.89-4.96-8.27-1.09.16-1.72,1.33-2.05,2.28-.21.61-.57,2.08-.63,2.68ZM138.64,42.79c-.16-2.91-.62-9.57-4.92-8.62-1.57.35-2.63,3.81-2.91,5.24-.22,1.1-.37,2.25-.32,3.38h8.15ZM70.59,46.86c-.14,3.04-.25,6.39-2.18,8.9-.93,1.2-2.6,2.49-4.11,2.77-6.58,1.21-9.88-3.63-10.76-9.52-.08-.56.21-2.01-.42-2.14-.34.07-.64.23-.99.25-5.9.3-13.37.55-19.06,1.83-3.56.8-5.38,1.8-5.77,5.7-.3,3.01-.33,6.91,0,9.9.09.85.42,1.81.51,2.68l.13.03c.75.03,1.53-.08,2.28-.02,2.8.21,5.35.18,8.15.25,31.52.84,63.04-.99,94.55-.25,12.4.29,24.83,1.42,37.19,0,.41-.05.85.04,1.27.02l.13-.03c-.03-.41.21-.78.25-1.15.32-2.91.29-11.01-.62-13.62-1.01-2.89-3.93-3.31-6.65-3.8-5.6-1-11.88-1.29-17.56-1.56-1.14-.05-2.31.05-3.45,0,.11,6.54-3.93,13.77-11.48,11.61-4.74-1.36-6.33-6.74-6.14-11.19l-.38-.38-54.89-.28ZM65.75,46.86h-7.65c-.11,1.81,1.17,6.15,3.04,6.77,4.06,1.33,4.56-3.99,4.6-6.77ZM138.38,47.12h-8.15c-.08,2.75,1.42,8.47,5.16,6.82,2.25-.99,2.95-4.58,2.99-6.82ZM171.51,71.07c-.23.06-.37.21-.65.24-12.6,1.56-25.32.26-37.95,0-33.4-.7-66.87,1.65-100.16,0-1.59-.08-3.15.18-4.72-.25.05,5.05-.07,10.12-.01,15.17.19,16.3.71,32.69,1.55,48.91.35,6.88.49,13.81,1.54,20.63.52,3.37,1.04,6.96,4.33,8.66,1.85.96,4.91,1.42,7,1.66,9.07,1.03,18.38.33,27.49.26,28.49-.21,57.09.31,85.38-1.52,3.96-.26,9.16-.2,12.88-1.65,3.08-1.21,3.84-3.27,4.32-6.39.85-5.53.09-11.5,0-17.05-.06-4.25.11-8.51.02-12.76-.32-15.51-1.3-31.12-1.01-46.62.06-3.1-.07-6.21-.01-9.31Z"/>
  <g class="st0">
    <path class="st2" d="M57.85,38.84c.06-.6.43-2.07.63-2.68.33-.95.95-2.12,2.05-2.28,4.12-.62,4.34,5.49,4.96,8.27l-7.65.38c.09-1.19-.12-2.52,0-3.7Z"/>
    <path class="st2" d="M65.75,46.86c-.05,2.78-.55,8.1-4.6,6.77-1.87-.61-3.15-4.95-3.04-6.77h7.65Z"/>
  </g>
  <path class="st2" d="M47.85,133.83c4.44-.35,13.73-.49,17.64,1.34,1.46.68,2.46,1.78,3.11,3.26,1.39,3.17,1.92,12.62,1.47,16.09-.75,5.76-6.98,6.15-11.57,6.53-4.54.37-9.99.56-14.42-.64-5.27-1.44-5.67-6.03-6.1-10.72-.26-2.88-.49-6.27-.27-9.18.4-5.44,5.65-6.33,10.14-6.68ZM42.62,138.67c-1.09.99-.91,4.71-.83,6.19.11,2.12.42,4.99.79,7.11.48,2.77.75,4.41,3.74,5.18,3.84.99,13.07.85,16.83-.37,1.44-.47,2.58-1.17,2.85-2.76.46-2.82.03-6.1-.23-8.92-.36-3.89-.09-6.53-4.54-7.44-4.09-.83-12.17-1-16.19,0-.47.12-2.12.76-2.42,1.02Z"/>
  <path class="st2" d="M112.58,133.83c3.78-.23,12.58-.26,15.7,1.76,3.58,2.32,3.7,8.51,3.98,12.33.04.51.25.94.27,1.51.22,5.18-.33,8.56-5.81,10.01-4.52,1.2-15.64,1.82-19.86.11-3.04-1.23-3.9-3.6-4.6-6.62-.78-3.38-1.59-10.58-.72-13.83.49-1.83,1.41-2.97,3.11-3.78,2.2-1.05,5.49-1.35,7.93-1.5ZM114.36,137.14c-1.96.11-4.41.31-6.32.82-.94.25-2.1.62-2.43,1.65s-.44,2.92-.37,3.97c.17,2.63.44,6.27,1.14,8.79.9,3.23,1.91,3.56,5.12,4.05,3.75.58,10.04.35,13.68-.81,1.71-.55,2.48-.84,2.94-2.67.6-2.43-.02-7.99-.52-10.58-.27-1.4-.69-3.36-2.05-4.07-2.71-1.41-8.13-1.32-11.2-1.16Z"/>
  <path class="st2" d="M80.98,134.08c3.84-.26,12.18-.43,15.53,1.16,2.68,1.27,3.52,4.36,3.88,7.08.25,1.88.45,4.46.53,6.35.29,6.2-.25,10.44-7.08,11.79-3.98.79-13.46,1.13-17.14-.32-2.38-.94-3.69-2.84-4.46-5.22-1.19-3.67-2.06-12.2-1.03-15.81.38-1.35,1.28-2.64,2.51-3.35,1.94-1.14,5.01-1.52,7.25-1.67ZM81.49,137.4c-1.33.1-3.07.31-4.34.76-1.78.63-2.08,1.55-2.23,3.38-.24,2.86.54,9.33,1.4,12.12.43,1.4.86,2.24,2.28,2.81,3.22,1.3,12.09.98,15.43-.14s2.92-4.44,2.81-7.41c-.07-1.87-.26-4.5-.54-6.34-.52-3.48-1.18-4.4-4.71-4.97-2.9-.47-7.13-.43-10.11-.21Z"/>
  <path class="st2" d="M50.4,106.82c3.81-.19,10.78-.19,14.26,1.16,2.09.81,3.24,2.17,3.83,4.32.9,3.28,1.12,10.33.56,13.68-.49,2.94-1.81,4.34-4.57,5.37-4.36,1.63-14.34,1.8-18.97,1.13-6.13-.89-7.01-4.24-7.55-9.78-.27-2.8-.51-6.64-.25-9.45.15-1.56.91-3.24,2.17-4.2,2.35-1.79,7.62-2.09,10.52-2.23ZM49.38,110.38c-.22.01-.51.17-.82.2-2.46.19-6.44-.15-6.77,3.17-.29,2.97.05,7.72.54,10.69.43,2.6,1.04,4.13,3.95,4.46,3.88.44,8.35.17,12.23-.22,1.83-.18,5.68-.39,6.37-2.55.14-.43.34-1.69.37-2.17.2-2.6.18-7.12-.32-9.63s-1.43-3.34-3.91-3.74c-3.3-.54-8.22-.41-11.64-.21Z"/>
  <path class="st2" d="M161.5,129.87c-.55.52-2.7,1.51-3.49,1.74-4.25,1.22-14.35,1.35-18.62.26-1.79-.46-3.48-1.34-4.38-3.01-1.87-3.49-2.36-11.65-1.96-15.58.41-4.06,3.1-5.51,6.8-6.2,4.77-.89,11.96-1.22,16.74-.3,5.58,1.07,5.92,4.96,6.53,9.78.44,3.44,1.22,8.59-.47,11.79-.12.23-.98,1.38-1.14,1.53ZM148,109.62c-2.28.11-4.88.26-7.13.77s-3.52,1.11-3.77,3.62c-.26,2.65.33,8.31,1.1,10.89.58,1.96.97,2.54,2.98,3.13,3.67,1.08,11.64.84,15.3-.25,2.26-.67,2.87-1.74,3.06-4.07.21-2.48-.2-8.43-1.02-10.72-.58-1.63-1.31-2.41-3-2.86-2.23-.59-5.22-.62-7.52-.51Z"/>
  <path class="st2" d="M80.47,107.07c4.02-.3,13.64-.44,16.87,1.86,2.52,1.8,2.75,5.34,3.08,8.13.37,3.12.96,7.61.17,10.65-.99,3.84-4.72,4.83-8.23,5.27-3.94.5-13.7.74-17.19-.87-1.9-.88-3-2.58-3.64-4.52-1.21-3.7-1.83-12.39-.57-16,.56-1.59,1.62-2.56,3.12-3.25,1.7-.78,4.47-1.13,6.37-1.27ZM82.76,110.38c-1.7.1-4.19.27-5.8.83-2.05.7-2.42,2-2.56,4.07-.17,2.48.35,7.12.84,9.63.43,2.25.81,3.77,3.24,4.41,3.12.83,11.63.54,14.87-.2,1.81-.41,3.23-1.13,3.48-3.14.35-2.72-.12-6.46-.48-9.18-.3-2.26-.12-4.49-2.64-5.52s-8.11-1.07-10.95-.9Z"/>
  <path class="st2" d="M112.58,107.07c3.77-.25,12.7-.52,15.79,1.41,1.2.75,2.1,1.97,2.56,3.3,1.12,3.21,1.55,11.87.71,15.11-.39,1.52-1.15,2.75-2.44,3.67-3.04,2.16-9.92,2.2-13.64,2.41-2.16.13-6.45-.25-8.52-.87-3.46-1.03-4.29-4.18-4.82-7.41-.5-3.03-1.13-10.53-.03-13.24.29-.71,1.06-1.7,1.67-2.16,2.07-1.57,6.19-2.05,8.73-2.23ZM114.62,110.38c-1.95.11-4.39.28-6.25.88-.91.3-2.17.86-2.49,1.84s-.18,5.23-.1,6.5c.02.26.2.53.22.8.16,1.87.4,5.73,1.43,7.24.72,1.06,2.63,1.41,3.83,1.52,3.42.31,11.06.14,14.2-1.06,1.86-.71,2.35-1.95,2.49-3.88.18-2.38-.08-4.81-.27-7.14-.15-1.73.06-4.44-1.53-5.6-2.14-1.56-8.79-1.24-11.52-1.09Z"/>
  <path class="st1" d="M114.36,137.14c3.07-.17,8.49-.26,11.2,1.16,1.36.7,1.78,2.66,2.05,4.07.49,2.59,1.12,8.16.52,10.58-.46,1.83-1.22,2.12-2.94,2.67-3.64,1.16-9.93,1.39-13.68.81-3.22-.49-4.23-.82-5.12-4.05-.7-2.53-.98-6.16-1.14-8.79-.07-1.05.05-2.98.37-3.97s1.49-1.4,2.43-1.65c1.91-.51,4.36-.71,6.32-.82Z"/>
  <path class="st1" d="M82.76,110.38c2.83-.17,8.39-.14,10.95.9s2.34,3.25,2.64,5.52c.36,2.72.83,6.45.48,9.18-.26,2.01-1.67,2.73-3.48,3.14-3.24.74-11.75,1.02-14.87.2-2.42-.64-2.8-2.16-3.24-4.41-.49-2.52-1.01-7.15-.84-9.63.14-2.07.51-3.36,2.56-4.07,1.61-.55,4.1-.72,5.8-.83Z"/>
  <path class="st1" d="M114.62,110.38c2.73-.15,9.38-.47,11.52,1.09,1.59,1.16,1.39,3.87,1.53,5.6.2,2.33.45,4.76.27,7.14-.14,1.93-.63,3.17-2.49,3.88-3.13,1.2-10.77,1.37-14.2,1.06-1.21-.11-3.11-.46-3.83-1.52-1.03-1.51-1.26-5.36-1.43-7.24-.02-.27-.2-.53-.22-.8-.09-1.26-.23-5.51.1-6.5s1.58-1.55,2.49-1.84c1.87-.61,4.31-.78,6.25-.88Z"/>
  <g>
    <path class="st2" d="M49.64,77.51c3.89-.18,7.6.02,11.42.43,3.25.35,6.56.89,7.95,4.28,1.45,3.52.93,7.45,1.07,11.16.07,1.78.17,3.5-.01,5.33-.33,3.27-2.02,4.98-5.08,5.88-4.69,1.39-13.6,1.52-18.46.87-6.83-.92-8.38-3.17-9.08-9.78-.43-4.01-.71-7.93-.22-11.98.19-1.57.8-2.84,2.02-3.85,2.41-1.99,7.36-2.21,10.39-2.35ZM50.4,81.08c-1.8.07-4.4.13-6.13.5-1.14.25-2.08.92-2.62,1.97-.05,3.45-.32,7.16-.12,10.6.06,1.09.28,3.27.58,4.27.47,1.56,1.18,2.15,2.68,2.67,3.72,1.29,13.28,1.13,17.21.26,2.37-.52,3.77-1.29,4.01-3.89.3-3.3.13-8.9-.32-12.18-.36-2.56-1.77-3.34-4.16-3.74-3.09-.52-7.94-.59-11.13-.46Z"/>
    <path class="st2" d="M85.31,78.02c3.44-.18,10.39-.24,13.05,2.11,1.51,1.34,2.07,4.17,2.31,6.1.41,3.34.8,10.81-.13,13.91-1.26,4.22-5.93,4.7-9.68,5.1-4.34.46-8.85.89-13.2-.09-4.54-1.02-5.37-3.44-5.82-7.68-.41-3.88-.57-7.58-.25-11.49.17-2.03.84-3.9,2.43-5.22,2.69-2.23,7.9-2.57,11.28-2.74ZM95.5,82.87c-.28-.28-1.22-.69-1.64-.78-3.28-.71-10.84-.44-14.14.27-1.91.41-3.44.94-3.75,3.13-.48,3.34-.38,8.88.26,12.2.4,2.06.9,3.04,3.02,3.6,3.17.84,11.95.38,15.05-.78,1.67-.62,2.32-1.54,2.53-3.33.34-3,.1-6.94-.22-9.94-.13-1.25-.17-3.43-1.11-4.37Z"/>
    <path class="st2" d="M143.42,77.76c3.71-.27,11.94-.52,15.02,1.41s3.66,6.38,4.13,9.63c.43,2.94.75,6.46.54,9.42-.3,4.16-2.74,5.71-6.57,6.42-4.35.81-15.13,1.21-19.1-.4-3.07-1.24-3.88-3.32-4.6-6.36-.87-3.7-1.67-11.56-.46-15.09.19-.56.63-1.32,1.02-1.79,1.94-2.38,7.07-3.03,10.01-3.24ZM138.2,100.05c.57.57,1.83.91,2.62,1.07,3.87.76,10.86.66,14.7-.29,2.04-.5,3.13-1.3,3.44-3.44.34-2.38-.47-8.33-1.02-10.83-.47-2.11-.94-4.21-3.18-4.97-2.43-.83-7.23-.72-9.89-.58-1.37.07-3.73.29-5.03.57-2.1.46-3.48,1.4-3.73,3.66-.33,2.91.19,8.73.8,11.65.17.8.74,2.63,1.29,3.17Z"/>
    <path class="st2" d="M113.09,77.76c3.98-.22,12.3-.5,15.21,2.5,2.23,2.29,2.42,7.02,2.68,10.06.28,3.2.83,8.13-.65,11.06-1.61,3.18-6.51,3.58-9.65,3.86-4.13.36-10.84.76-14.67-.91-1.56-.68-2.42-1.79-3-3.37-1.28-3.49-1.69-12.95-1.34-16.77.24-2.55,1.41-4.21,3.76-5.16,2.19-.89,5.3-1.14,7.65-1.27ZM125.31,82.87c-.43-.43-1.55-.86-2.16-1.03-3.4-.92-9.63-.7-13.17-.3-1.28.15-3.61.75-3.92,2.2-.39,1.83-.39,4.44-.31,6.33.09,2.23.36,5.42.8,7.61.34,1.72.66,2.82,2.46,3.4,3.26,1.05,10.21.68,13.63,0,.97-.19,3.02-.73,3.64-1.45,1.08-1.26.95-5.33.89-7.03s-.26-4.12-.54-5.83c-.16-.98-.66-3.23-1.33-3.9Z"/>
  </g>
</svg>