<?xml version="1.0" encoding="UTF-8"?>
<svg id="Camada_1" xmlns="http://www.w3.org/2000/svg" version="1.1" viewBox="0 0 200 200">
  <!-- Generator: Adobe Illustrator 30.0.0, SVG Export Plug-In . SVG Version: 2.1.1 Build 123)  -->
  <defs>
    <style>
      .st0 {
        fill: #7b7b79;
      }

      .st1 {
        fill: #232223;
      }
    </style>
  </defs>
  <path class="st1" d="M127.33,60.05c7.62-2.5,21.93-14.64,29.12-15.05,4.23-.24,22.2,8.83,24.66,12.03,2.91,3.79,2.91,24.33,1.42,29.09-2.01,6.44-21,11.92-25.77,17.47.29,1.52,23.04,10.58,25.35,15.5,1.84,3.92,1.8,25.59-.34,29.35-1.25,2.2-21.16,13.76-23.98,14.46-8.88,2.21-22.09-10.31-30.47-13.35v20.72c0,6.1-19.99,17.5-24.91,17.77-4.69.26-26.74-11.35-26.74-16.57v-21.32c-8.12,2.08-19.96,13.7-27.95,13.25-3.3-.19-24.23-11.57-26.01-14.25-2.66-4.02-2.81-25.86-.81-30.05l25.34-16.09c-.46-1.33-21.5-10.35-24.29-14.16-3.55-4.85-3.64-28.32,1.26-32.91,1.77-1.66,18.67-10.65,20.91-10.92,8.3-1,23.23,11.69,31.55,14.43v-27.93c0-5.01,21.37-16.05,26.13-15.96,5.14.1,25.52,10.9,25.52,17.17v27.33ZM87.69,35.13v42.95l-41.3-20.92-14.56,7.99,51.08,30.08-.59,1.81-49.93,28.21c-.25,2.08,12.8,9.45,15.2,9.19l38.73-21.43,1.38.81v52.86l1.57,2.63c3.86.68,8.6,6.94,12.24,4.57v-64.87c0-.4,1.52-2.43,2.23-2.61l51.81,27.3,14.43-6.67v-3.01c-5.63-3.3-50.13-24.89-49.88-28.19.31-4.02,52.06-28.29,51.04-31.81-4.01-2.25-10.34-7.73-15-6.69-6.29,2.92-49.95,29.71-52.86,28.91-1.52-.42-1.55-1.11-1.82-2.43-.73-3.55-.54-33.34.18-37.13,2.01-10.57,26.75-8.37-.4-19.66l-13.56,8.09ZM31.83,73.87v10.21l22.86,13.79,8.24-5.69-31.1-18.31ZM121.32,123.13v10.51l31.23,17.72v-10.81l-31.23-17.42ZM53.45,151.36l21.62-12.31v-10.51c-2.3,1.98-21.62,11.39-21.62,12.91v9.91ZM31.83,135.14v10.51l10.81,5.71v-10.81l-10.81-5.41Z"/>
  <polygon class="st0" points="121.32 123.13 152.56 140.55 152.56 151.36 121.32 133.64 121.32 123.13"/>
  <polygon class="st0" points="31.83 73.87 62.93 92.18 54.69 97.87 31.83 84.08 31.83 73.87"/>
  <path class="st0" d="M53.45,151.36v-9.91c0-1.53,19.32-10.94,21.62-12.91v10.51l-21.62,12.31Z"/>
  <polygon class="st0" points="31.83 135.14 42.64 140.55 42.64 151.36 31.83 145.65 31.83 135.14"/>
</svg>