<?xml version="1.0" encoding="UTF-8"?>
<svg id="Camada_1" xmlns="http://www.w3.org/2000/svg" version="1.1" viewBox="0 0 200 200">
  <!-- Generator: Adobe Illustrator 30.0.0, SVG Export Plug-In . SVG Version: 2.1.1 Build 123)  -->
  <defs>
    <style>
      .st0 {
        fill: #282928;
      }
    </style>
  </defs>
  <path class="st0" d="M17.09,48.01c1.22-1.22,3.27-2.43,4.72-3.43,23.07-9.7,46.28-24.16,69.42-33.14,5.72-2.22,10.08-2.74,15.97-.52,23.36,8.79,46.72,24.26,70.3,33.32,7.65,4.34,10.26,9.96,10.87,18.59,1.77,24.96-.8,52.59-.64,77.71-1.96,10.32-11.12,13.64-19.33,18.02-19.54,10.42-39.64,19.87-59.26,30.16-7.33,2.91-12.96,2.04-20-.88-23.59-9.8-47.41-25.01-70.38-36.39-4.42-3.62-6.68-8.17-7.13-13.91-1.98-25,1.51-52.58.02-77.86.67-4.31,2.33-8.55,5.44-11.65ZM100.36,22.77c-1.03,0-2.34.47-3.36.75-13.95,6.57-27.87,13.21-41.87,19.66-2.9,1.34-21.9,8.94-21.91,10.69,1.13,1.23,2.65,1.97,4.09,2.74,5.59,3.01,13.84,6.81,19.74,9.18,6.41,2.58,7.39,1.43,13.33-1.05,16.78-7,35.83-15.56,52.07-23.67,2.22-1.11,8.58-3.23,5.4-6.11-8.08-3.14-16.28-8.53-24.32-11.43-1-.36-2.09-.77-3.17-.76ZM145.1,44.79c-1.4.29-15.07,6.68-16.52,7.67-1.15.78-2.15,1.21-1.67,2.89.17.53.58.83.99,1.15,1.13.88,8.63,3.97,10.53,4.72,3.14,1.25,6.12,2.99,9.6,2.26,2.54-.53,14.57-6.41,17.23-8.02,1.97-1.19,2.97-1.96.37-3.55-1.6-.98-14.48-6.61-16.15-6.99-1.47-.33-2.88-.45-4.36-.14ZM161.9,141.8l1.77-5.33c-.98-14.28,1.25-30.14,0-44.22-.27-3.11-1.44-5.28-4.1-6.95-16.45-6.01-32.75-15.51-49.06-21.42-3.45-1.25-4.22-1.79-7.87-.52-18.81,6.51-38.03,18.24-57.02,25.04-1.89.76-3.03,2.28-3.76,4.13v50c.86,3.33,8.18,6.45,11.31,8.15,13.98,7.56,28.49,14.27,42.63,21.54,3.83,1.21,5.8,1.01,9.45-.51l56.63-29.9ZM28.48,102.27c.49-1.82,0-8.56,0-11.05,0-.9,1.05-4.3,1.48-5.36,2.76-6.75,10.14-7.19,15.34-10.95.04-1.56-14.76-7.27-16.82-8.97-1.49-.68-2.57.15-3.41,1.36l-.26,33.9,2.07,2.16c.51.24,1.55-.89,1.6-1.1ZM174.7,78.33v-10.78c0-.16-.82-.81-1.07-1.07-2.19-1.02-10.25,5.01-13.13,5.02l14.2,6.83Z"/>
  <g>
    <path class="st0" d="M64.63,98.44c-1.68.34-4.09,2.2-4.48,3.94-.5,2.22-.42,12.11-.12,14.63s2.53,4.56,5.04,4.95,12.37.34,14.39-.8c1.17-.66,2.43-2.33,2.64-3.67.42-2.67.37-11.4.04-14.18-.2-1.66-1.22-3.33-2.69-4.15-2.02-1.14-12.34-1.22-14.83-.71ZM123.01,98.44c-2.27.46-4.21,2.64-4.56,4.91-.39,2.55-.36,10.49-.05,13.13.23,1.87,1.14,3.65,2.8,4.57,2.25,1.25,11.54,1.33,14.27.91,2.52-.39,4.74-2.41,5.04-4.95.35-2.97.35-10.73,0-13.7-.3-2.54-2.53-4.56-5.04-4.95-2.19-.34-10.37-.34-12.47.09ZM81.98,128.41c-3.09.68-3.74,4.82-1.71,7.28,5.18,6.26,17.61,8.31,25.22,7.3,4.18-.55,21.08-8.05,14.78-13.64-3.68-3.27-9.13,1.94-12.91,3.42-5.12,2.01-8.76,2.12-14.08.43-3.6-1.15-7.83-5.55-11.3-4.78Z"/>
    <path class="st0" d="M64.63,98.44c2.49-.51,12.8-.42,14.83.71,1.47.83,2.49,2.5,2.69,4.15.33,2.78.38,11.52-.04,14.18-.21,1.34-1.47,3.01-2.64,3.67-2.02,1.14-11.83,1.19-14.39.8s-4.74-2.41-5.04-4.95-.38-12.4.12-14.63c.39-1.74,2.8-3.59,4.48-3.94Z"/>
    <path class="st0" d="M123.01,98.44c2.1-.43,10.28-.42,12.47-.09,2.52.39,4.74,2.41,5.04,4.95.35,2.97.35,10.73,0,13.7-.3,2.54-2.53,4.56-5.04,4.95-2.73.42-12.02.34-14.27-.91-1.65-.92-2.57-2.69-2.8-4.57-.32-2.63-.35-10.58.05-13.13.35-2.27,2.29-4.45,4.56-4.91Z"/>
    <path class="st0" d="M81.98,128.41c3.47-.77,7.7,3.64,11.3,4.78,5.33,1.69,8.96,1.58,14.08-.43,3.77-1.48,9.23-6.69,12.91-3.42,6.29,5.59-10.61,13.09-14.78,13.64-7.61,1.01-20.04-1.04-25.22-7.3-2.03-2.45-1.37-6.59,1.71-7.28Z"/>
    <path class="st0" d="M64.73,98.48c2.49-.51,12.8-.42,14.83.71,1.47.83,2.49,2.5,2.69,4.15.33,2.78.38,11.52-.04,14.18-.21,1.34-1.47,3.01-2.64,3.67-2.02,1.14-11.83,1.19-14.39.8s-4.74-2.41-5.04-4.95-.38-12.4.12-14.63c.39-1.74,2.8-3.59,4.48-3.94Z"/>
    <path class="st0" d="M123.11,98.48c2.1-.43,10.28-.42,12.47-.09,2.52.39,4.74,2.41,5.04,4.95.35,2.97.35,10.73,0,13.7-.3,2.54-2.53,4.56-5.04,4.95-2.73.42-12.02.34-14.27-.91-1.65-.92-2.57-2.69-2.8-4.57-.32-2.63-.35-10.58.05-13.13.35-2.27,2.29-4.45,4.56-4.91Z"/>
    <path class="st0" d="M82.08,128.44c3.47-.77,7.7,3.64,11.3,4.78,5.33,1.69,8.96,1.58,14.08-.43,3.77-1.48,9.23-6.69,12.91-3.42,6.29,5.59-10.61,13.09-14.78,13.64-7.61,1.01-20.04-1.04-25.22-7.3-2.03-2.45-1.37-6.59,1.71-7.28Z"/>
  </g>
</svg>