<?xml version="1.0" encoding="UTF-8"?>
<svg id="Camada_1" xmlns="http://www.w3.org/2000/svg" version="1.1" viewBox="0 0 200 200">
  <!-- Generator: Adobe Illustrator 30.0.0, SVG Export Plug-In . SVG Version: 2.1.1 Build 123)  -->
  <defs>
    <style>
      .st0 {
        fill: #272727;
      }
    </style>
  </defs>
  <path class="st0" d="M123,93.93c5.49-5.56.45-12.32-5.03-15.25-17.81-9.52-44.11,6.68-39.59,27.72,3.3,15.37,19.76,16.24,29.49,25.54,11.25,10.75,15.61,34.08,8.09,47.82-13.01,23.81-49.89,8.8-39.7-19.38,1.5-4.14,7.95-13.37,2.06-16.35-6.74-3.41-14.71,6.56-19.37,10.37-10.2,8.35-25.6,11.31-34.68-.37-11-14.16.39-31.87,14.51-38.13,5.24-2.32,15.46-3.48,14.87-11.03-.49-6.31-12.51-8.02-17.36-9.79-5.99-2.19-11.93-5.69-15.44-11.17-14.4-22.44,13.02-49.73,35.14-31.36,4.45,3.69,12.69,13.97,19.29,9.05,6.03-4.49.19-18.39-.24-24.69-.82-12.13,6.55-23,17.93-27.01,16.52-5.83,30.29,6.21,29.17,23.06-.39,5.91-4.64,12.86-.97,18.41,4.64,7.02,17.01,1.12,23.27-.61,9.94-2.76,20.89-3.52,29.8,2.57,12.13,8.3,11.46,24.47.21,33.2-6.37,4.95-16.57,6.94-19.41,15.65-3.9,11.97,9.56,14.86,16.37,20.86,15.59,13.74,6.04,37.4-11.03,44.71-16.25,6.97-32.86-3.3-29.74-21.65,1-5.86,4.88-11.79,1.1-17.56-5.4-8.26-21.09-5.89-28.93-12.43-7.16-5.98-5.41-15.92,3.82-18.28,5.38-1.37,11.98.52,16.34-3.89ZM99.66,16.19c-6.73.66-13.23,5.84-15.56,12.13-3.2,8.62,1.24,15.36,1.76,23.68,1.05,16.78-12.71,23.64-26.13,14.09-5.73-4.08-9.99-11.22-17.66-11.83-15.27-1.22-23.04,18.1-12.14,28.5,8.93,8.52,30.82,6.37,31.64,21.93.84,15.69-17.91,14.88-26.61,22.65-7.23,6.46-11.12,19.35-.9,25,15.2,8.4,24.9-13.04,37.61-15.97,9.38-2.16,17.44,3.41,16.49,13.43-.55,5.71-4.74,11.08-5.67,16.8-2.92,17.87,20.63,24.24,27.61,7.65,3.93-9.35,1.61-24.13-3.92-32.52-8.26-12.53-24.89-11.41-32.82-26.51-14.98-28.54,20.83-56.43,47.45-44.21,18.32,8.41,16.04,32.15-4.46,33.42-2.46.15-9.24-.77-9.94,2.64s5.34,5.37,7.9,6.04c11.56,3.04,26.04,4.59,26.94,19.99.51,8.83-8.35,20.73,1.99,27.31,11.45,7.28,27.15-6.25,28.19-18.17,1.56-17.79-18.83-16.36-23.71-30-3.76-10.49,2.27-19.59,10.81-25.16,6.77-4.41,16.01-6.77,16.71-16.55.81-11.28-10.88-14.7-20.06-14.13-12.6.78-29.13,12.9-39.73.19-8.91-10.69,2.46-22.01-2.57-33.03-2.5-5.47-7.22-7.96-13.19-7.38Z"/>
</svg>