<?xml version="1.0" encoding="UTF-8"?>
<svg id="Camada_1" xmlns="http://www.w3.org/2000/svg" version="1.1" viewBox="0 0 200 200">
  <!-- Generator: Adobe Illustrator 30.0.0, SVG Export Plug-In . SVG Version: 2.1.1 Build 123)  -->
  <defs>
    <style>
      .st0 {
        fill: #282628;
      }
    </style>
  </defs>
  <path class="st0" d="M28.92,164.32c3.29,3.79,8.26,7.13,13.38,7.59,10.89.98,15.99-7.14,25.19-10.42,5.73-2.04,11.22-2.3,17.12-.8,12.95,3.28,20.08,14.67,31.31,20.85,9.91,5.45,22.76,7.54,33.12,1.96,1.5-.81,2.74-2.3,4.53-2.22,2.8.11.76,2.71-.44,3.7-10.68,8.77-30.14,5.5-41.12-1.26-12.94-7.98-22.28-24.3-40.07-19.72-7.59,1.95-12.45,8.08-19.71,10.5-13.82,4.6-25.87-4.46-31.18-16.75-4.56-10.55-3.18-22.46,1.13-32.85-.03-.48-2.02-3.13-2.44-3.88-2.95-5.38-4.24-12.09-1.01-17.61.91-1.55,2.82-3.38,3.18-5.08.31-1.47-.12-3.08-.18-4.52-.33-7.95,4.14-14.13,10.94-17.76,2.24-1.19,4.8-1.98,6.96-3.26,5.18-3.07,5.45-7.56,7.31-12.68,3.02-8.31,9.12-15.46,17.55-18.53,4.31-1.57,9.03-2.04,13.53-1.14-1.35-2.53-2.66-5.5-3.03-8.38-1.9-15.08,12.06-24.83,26.11-21.76,8.25,1.8,13.84,7.47,16.69,15.25,1.41,3.85,1.77,7.71,5.32,10.33,2.8,2.07,7.6,2.48,10.98,3.36,11.5,3,23.39,8.82,28.5,20.18,1.71,3.79,2.4,7.75,2.67,11.9,8.07,3.36,14.37,10.48,16.75,18.9.87,3.09,1.38,6.7.96,9.88-.57,4.33-2.12,8.35-4.55,11.96,1.81,4.71,3,9.76,3.48,14.78,1.87,19.71-5.98,41.96-25.65,49.56-14.12,5.45-27.05.72-38.98-7.1-14.66-9.6-30.79-24.21-49.63-15.66-11.32,5.14-19.59,19.15-33.9,13.34l-4.85-2.65ZM161.28,69.56c-.09-2.71-.84-5.69-1.91-8.19-4.37-10.22-14.62-15.54-24.82-18.43-7.72-2.19-14.87-1.86-18.21-10.48-1.62-4.19-2.25-7.97-4.86-11.87-5.72-8.54-18.5-10.33-26.77-4.45-4.27,3.04-6.29,7.27-6.67,12.46-.07.97.4,1.93.22,2.94l1.53-.97c2.88-1.91,3.86-7.61,6.31-9.34,2.8-1.99,5.22,1.18,7.4,2.58,1.99,1.28,4.33,2.26,6.66,2.68,2.76.5,5.15.19,7.81,1.53,4.81,2.42,4.96,11.38,4.14,15.96-.24,1.32-.65,2.58-1.03,3.86,2.16-.41,4.45-1.31,6.64-1.5,8.82-.79,16.58,2.99,21.36,10.34,2.36,3.62,3.22,8.35,7.64,10.18,3.15,1.3,6.75.8,10.09,1.43,1.48.28,3.04.81,4.47,1.29ZM107.99,49.31c.39-1.61.87-3.23,1.11-4.87.5-3.5.54-7.99-.52-11.39-.68-2.17-1.81-2.76-3.97-3.2-2.32-.47-4.72-.35-7.06-.98-3.15-.85-6.8-2.95-8.89-5.45-.48-.58-.63-.39-1.02.22-1.91,2.94-2.75,6.29-5.7,8.65-.63.51-3.02,1.58-3.03,2.18,0,.37.82,2.38,1.05,2.88.39.86,1.64,3.25,2.21,3.88s3.05,1.54,3.99,2.1c7.47,4.42,10.75,13.39,10.15,21.81-.55,7.72-5.98,17.77-13.11,21.23-.28.14-.65.09-.81.28,3.67,2.15,6.56,5.19,8.87,8.73,1.7,2.61,2.99,5.5,4.72,8.1,1.57,2.35,3.43,4.53,5.42,6.53,6.44-5.39,10.83-12.67,16.19-19.02.08-.26-.16-.41-.36-.5-.74-.35-1.79-.52-2.61-.87-5.43-2.28-10.68-7.72-13.44-12.86-2.91-5.41-5-12.36-2.39-18.26l1.41-2.61c-.99-.04-1.83.45-2.84.12-1.18-.39-1.27-1.86.13-2.07,1.48-.22,3.04-.26,4.52-.48,1.73-1.66,3.7-3.34,5.97-4.13ZM93.25,60.64c-.6-8.18-6.96-15.89-15.16-17.33-12.02-2.12-22.04,5.52-26.61,16.1-1.8,4.17-2.33,9.73-5.28,13.2-5.01,5.89-13.3,5.37-18.12,12.52-2.55,3.78-2.41,7.18-2.2,11.48.31,6.33-4.49,7.41-4.99,12.41-.4,3.97,1.02,7.92,3.07,11.25.84,1.36,2.07,2.63,2.68,4.06.93,2.19,1.43,4.32,2.68,6.45,3.14,5.37,9.71,10.46,16.24,9.85,4.98-.47,3.92-4.15,1.72-7.16-1.53-2.09-3.68-3.4-5.31-5.34-9.04-10.72-4-27.49,7.19-34.54,6.54-4.12,15.31-4.34,17.71-13.16.97-3.56.31-7.78,1.67-11.15,2.12-5.26,6.9-4.41,11.26-5.91,3.03-1.05,5.5-3.21,7.07-5.97.51-.89.57-2.17,2.06-1.65.76,1.05,1.33,2.26,2.17,3.27.28.33,1.81,2,2.17,1.63ZM163.47,118.47c-.11.43.09.72.42.97.69.35,2.57-.86,3.25-1.32,7.85-5.31,13.17-15.12,11.48-24.72-2.16-12.2-12.33-19.57-24.02-21.62-6.25-1.1-11.24-.02-15.01-6.29-3.38-5.61-3.72-9.88-10.11-13.58-8.67-5.03-23.65-1.62-27.79,7.93-.81,1.87-1.82,5.06.18,6.42,3.02,2.05,5.43-.24,8.33-.95,5.03-1.24,10,.53,13.81,3.81,2.94,2.54,4.83,6.27,8.07,8.44.54.36,1.25.68,1.81,1.03l.29.05c1.13-.38,2.36-.83,3.53-1.03,3.37-.57,6.76-.43,10.09.3,5.58,1.23,11.59,4.53,14.73,9.39,3.97,6.13,3.53,11.78-1.91,16.7-.33.3-3.63,2.6-3.05,3.15,2.38,0,4.98-2.09,6.64-3.69.53-.51.82-1.38,1.91-1.06s.46,2.05.02,2.78c-1.76,2.92-5.36,4.26-7.81,6.32-.23.19-1.03.91-.97,1.18.26.36.48.6.95.57,1.18-.09,4.88-2.43,5.88-3.26.74-.62,2.9-3.18,3.82-2.94,1.48.37.68,1.69.08,2.49-1.49,2-3.94,3.73-6.11,4.97-.59.33-3.9,1.81-3.97,2.13l.33.75c2.27.33,4.97-1.3,6.8-2.53.69-.46,1.43-1.19,2.07-1.62s1.42.03,1.41.77c0,1.42-3.95,3.85-5.19,4.47ZM98.47,112.37c-1.41-1.54-2.85-3.02-4.09-4.71-5.29-7.2-7.31-16.63-16.77-19.74-1.64-.54-3.36-.82-5.07-1.02-1.11-.58-.51-1.97.62-2.13.73-.1,2.28-.08,3.04-.01.7.06,1.47.39,2.16.45,1.15.08,2.24-.57,3.23-1.13,6.83-3.9,10.77-11.73,11.46-19.4.02-.22.18-.44.2-.68l-.09-.32c-1.63-1.07-3.56-1.92-4.57-3.69-1.13,2.15-2.15,3.61-4.31,4.82-2.62,1.47-4.81,1.54-7.59,2.19-3.08.72-4.63,2.47-4.95,5.7-.45,4.5-.18,8.37-2.49,12.51-4.44,7.95-13.42,7.2-19.56,12.38-7.92,6.68-10.46,19.01-4.98,28.02,1.86,3.06,4.96,5.25,6.79,8.42,4.49,7.79-1.84,10.91-8.96,10.27-6.35-.57-12.83-5.87-15.95-11.22-.73-1.25-1.33-2.65-1.89-3.98-.27.18-.28.44-.39.7-4.43,11.32-2.46,32.01,11.95,34.9,10.48,2.1,16.39-5.81,24.2-10.7,8.46-5.29,16.9-7.16,26.77-5.07,7.52,1.59,13.77,6.38,21.2,8.14,12.3,2.92,28.59-.81,38.41-8.85,2.79-2.29,9.45-8.81,9.46-12.49,0-.19.09-.76-.33-.55-.78.39-2.05,2.59-2.72,3.37-.77.9-2.64,2.75-3.81,2.93s-1.82.09-1.63-1.19c.14-.88,2.55-2.4,3.27-3.04,1.88-1.67,4.24-4.27,3.91-6.96-.03-.22-.34-.08-.54-.11-1.69,2.34-3.31,4.77-5.66,6.52-.9.67-2.51,1.83-3.66,1.49-1.94-1.59,1.63-3.34,2.79-4.31.79-.66,1.97-1.63,2.59-2.41.52-.65,1.51-1.9.67-2.59-1.92.95-3.36,2.59-5,3.91-.94.76-3.44,2.91-4.55,2.83-.63-.04-1.12-.57-1.12-1.2,0-1.24,2.85-3.24,2.27-5.18-.12-.25-.39-.6-.69-.55-1.02.16-3.82,4.11-4.71,5.08-4.85,5.28-11.01,7.21-18.09,5.7-3.27-.7-6.16-2.51-8.97-4.23-11.64,5.17-24.79,5.15-36.84,1.35-5.07-1.6-10.69-4.05-14.98-7.19-1.82-1.33-6.91-5.68-6.76-8.01.04-.6.73-.93.67-1.52-.03-.33-1.11-1.74-1.36-2.36-1.06-2.62.62-3.74,3.05-4.09,1.01-4.71,5.05-2.76,7.84-.94,1.22.8,2.36,1.79,3.49,2.71-.16-.9-.88-1.64-1.04-2.55-.23-1.36-.15-2.6,1.19-3.27,1.52-.76,3.15.13,4.48.86,2.49,1.37,4.82,3.52,7.38,4.79,5.27,2.61,11.51,2.13,16.75-.29l4.27-2.36ZM130.42,79.99c-4.69-2.29-6.37-7.97-10.94-10.47-3.48-1.91-6.48-2.09-10.2-.78-1.17.41-2.26,1.14-3.52,1.26-1.45.14-3.09.09-4.24-.87,1.84,6.78,5.86,12.97,11.88,16.7,1.88,1.16,3.9,1.66,5.87,2.62.19.07.33.01.5-.07.45-.24,1.63-1.71,2.17-2.19,1.75-1.56,3.93-3.25,5.89-4.54.84-.55,1.94-.94,2.59-1.64ZM156.28,109.33c-1.25-.22-2.3-1.67-2.17-2.92.25-2.27,3.55-3.99,4.99-5.67,6.85-7.96-2.42-16.76-10.16-18.96-22.95-6.51-30.63,18.95-44.28,30.59-7.5,6.39-17.03,9.91-26.68,6.04-3.52-1.41-6.24-4.07-9.43-6-1.32-.8-1.78-.69-1.11.89.5,1.18,2.42,2.99,2.34,4.17s-1.14,1.08-2.05.97c-3.22-.38-6.06-2.99-8.75-4.51-.39-.22-1.81-1.13-2.02-.35-.27,1.02,2.81,3.22,3.62,3.75,1.26.82,2.87,1.45,4.06,2.25.59.4,1.29,1.18.91,1.92-.47.92-1.28.57-2.07.32-1.71-.54-3.93-2.01-5.42-3.05-.7-.49-2.64-2.29-3.2-2.45-.31-.09-.62-.04-.93-.04,0,.18-.02.36,0,.54.27,1.89,4.53,4.46,6.15,5.37,1.39.79,5.1,1.77,3.64,3.77-1.41.94-5.9-1.97-7.16-2.85-.5-.35-1-.75-1.43-1.18-1.47.45.78,2.38,1.41,2.94,6.37,5.64,20.15,10.23,28.58,10.76,21.69,1.35,35.43-8.52,50.32-22.49,1.5-1.41,3.12-3.43,4.78-4.56,1.18-.8,2.93-.47,2.56,1.25-.12.57-1.06,1.72-1.48,2.22-5.71,6.67-14.51,14.58-22.1,18.98-1.67.96-3.43,1.74-5.07,2.75,0,.17,2.03,1.15,2.39,1.3,7.99,3.43,14.7,1.4,20.33-4.88,1.25-1.4,2.16-3.38,4.01-4.03s4.01-.08,4.56,1.96l-.1,2.28c1.34-1.33,4.44-4.69,6.47-4.32.27.05.89.43,1.14.62.4.31.7.97.9,1.1.62.4,1.39-.39,2.45.33,1.52,1.02,1.32,2.81,1.34,4.42,3.08.88,1.77,4.74.89,6.91-6.46,15.91-28.72,23.63-44.69,21.79-.69-.08-1.49-.35-2.18-.43-.22-.02-.83-.14-.76.22,1.98.3,3.52,1.93,5.14,3.01,12.04,8.03,24.38,14.91,39.13,8.56,19.09-8.23,26.02-31.28,22.18-50.51-.45-2.27-1.29-4.43-1.68-6.69-.55-.14-.42.31-.75.66-2.2,2.34-6.35,5.36-9.46,6.19-2.46.66-4.67.12-5.01-2.71-.72-.2-1.43.19-2.05.22-1.31.06-3.28-1.3-3.15-2.71.06-.62.75-1.37.65-1.75-1-.51-1.68-1.01-1.94-2.18.3-1.56,1.38-2.68,2.38-3.81Z"/>
  <path class="st0" d="M81.84,69.37c1.84,1.35,3.38,2.24,5.44.62.78.81.23,1.71-.55,2.27-1.92,1.36-5.09.26-5.44-2.16l.55-.73Z"/>
  <path class="st0" d="M114.77,73.69c.42,2.02-1.77,3.27-3.58,3.27-1.06,0-2.91-.52-2.73-1.86.16-1.21,1.68.15,2.49.1.26-.01,1.19-.22,1.44-.31.94-.33,1.23-1.44,2.38-1.2Z"/>
  <g>
    <path class="st0" d="M104.46,35.23c-.39.09-1.18,1.11-1.79,1.25-.45.1-1.44.1-1.91.03-.85-.13-1.77-1.39-2.26.08,1.41,2.89,6.41,2.37,6.48-1.03-.12-.19-.25-.39-.51-.33ZM89.69,37.42c-.28.09-.45.68-.79.95-1.2.97-2.36.52-3.58-.1-.7.58-.27,1.18.33,1.62,1.32.97,3.39.71,4.56-.42.93-.89.98-2.52-.53-2.05Z"/>
    <path class="st0" d="M104.46,35.23c.26-.06.39.14.51.33-.07,3.4-5.07,3.92-6.48,1.03.49-1.47,1.41-.2,2.26-.08.47.07,1.45.07,1.91-.03.62-.14,1.41-1.17,1.79-1.25Z"/>
    <path class="st0" d="M89.69,37.42c1.5-.47,1.46,1.15.53,2.05-1.17,1.12-3.24,1.39-4.56.42-.6-.44-1.03-1.04-.33-1.62,1.21.63,2.37,1.07,3.58.1.34-.27.51-.86.79-.95Z"/>
    <path class="st0" d="M104.46,35.23c.26-.06.39.14.51.33-.07,3.4-5.07,3.92-6.48,1.03.49-1.47,1.41-.2,2.26-.08.47.07,1.45.07,1.91-.03.62-.14,1.41-1.17,1.79-1.25Z"/>
    <path class="st0" d="M89.69,37.42c1.5-.47,1.46,1.15.53,2.05-1.17,1.12-3.24,1.39-4.56.42-.6-.44-1.03-1.04-.33-1.62,1.21.63,2.37,1.07,3.58.1.34-.27.51-.86.79-.95Z"/>
  </g>
  <path class="st0" d="M114.77,73.69c.42,2.02-1.77,3.27-3.58,3.27-1.06,0-2.91-.52-2.73-1.86.16-1.21,1.68.15,2.49.1.26-.01,1.19-.22,1.44-.31.94-.33,1.23-1.44,2.38-1.2Z"/>
</svg>